<svg width="137" height="91" viewBox="0 0 137 91" fill="none" xmlns="http://www.w3.org/2000/svg">
<path d="M48.3706 5.88037C48.3706 3.11895 50.6092 0.880371 53.3706 0.880371H83.3706C86.132 0.880371 88.3706 3.11895 88.3706 5.88037V35.8804C88.3706 38.6418 86.132 40.8804 83.3706 40.8804H53.3706C50.6092 40.8804 48.3706 38.6418 48.3706 35.8804V5.88037Z" fill="#8370F8"/>
<path d="M69.4313 8.76429C68.8455 8.1785 67.8957 8.1785 67.3099 8.76429L57.764 18.3102C57.1782 18.896 57.1782 19.8458 57.764 20.4316C58.3498 21.0173 59.2995 21.0173 59.8853 20.4316L68.3706 11.9463L76.8559 20.4316C77.4417 21.0173 78.3914 21.0173 78.9772 20.4316C79.563 19.8458 79.563 18.896 78.9772 18.3102L69.4313 8.76429ZM69.8706 35.3167L69.8706 9.82495L66.8706 9.82495L66.8706 35.3167L69.8706 35.3167Z" fill="white"/>
<path d="M88.3706 85.8804C88.3706 88.6418 86.132 90.8804 83.3706 90.8804H53.3706C50.6092 90.8804 48.3706 88.6418 48.3706 85.8804V55.8804C48.3706 53.1189 50.6092 50.8804 53.3706 50.8804H83.3706C86.132 50.8804 88.3706 53.1189 88.3706 55.8804V85.8804Z" fill="#8370F8"/>
<path d="M67.3099 82.9965C67.8957 83.5822 68.8455 83.5822 69.4313 82.9965L78.9772 73.4505C79.563 72.8647 79.563 71.915 78.9772 71.3292C78.3914 70.7434 77.4417 70.7434 76.8559 71.3292L68.3706 79.8145L59.8853 71.3292C59.2995 70.7434 58.3498 70.7434 57.764 71.3292C57.1782 71.915 57.1782 72.8647 57.764 73.4505L67.3099 82.9965ZM66.8706 56.4441L66.8706 81.9358L69.8706 81.9358L69.8706 56.4441L66.8706 56.4441Z" fill="white"/>
<path d="M131.292 50.8804C134.054 50.8804 136.292 53.1189 136.292 55.8804V85.8804C136.292 88.6418 134.054 90.8804 131.292 90.8804H101.292C98.5311 90.8804 96.2925 88.6418 96.2925 85.8804V55.8804C96.2925 53.1189 98.5311 50.8804 101.292 50.8804L131.292 50.8804Z" fill="#8370F8"/>
<path d="M128.409 71.941C128.994 71.3552 128.994 70.4055 128.409 69.8197L118.863 60.2738C118.277 59.688 117.327 59.688 116.741 60.2738C116.156 60.8596 116.156 61.8093 116.741 62.3951L125.227 70.8804L116.741 79.3657C116.156 79.9514 116.156 80.9012 116.741 81.487C117.327 82.0728 118.277 82.0728 118.863 81.487L128.409 71.941ZM101.856 72.3804L127.348 72.3804L127.348 69.3804L101.856 69.3804L101.856 72.3804Z" fill="white"/>
<path d="M5.44849 90.8804C2.68706 90.8804 0.448486 88.6418 0.448486 85.8804L0.448486 55.8804C0.448486 53.1189 2.68706 50.8804 5.44849 50.8804L35.4485 50.8804C38.2099 50.8804 40.4485 53.1189 40.4485 55.8804L40.4485 85.8804C40.4485 88.6418 38.2099 90.8804 35.4485 90.8804H5.44849Z" fill="#8370F8"/>
<path d="M8.33241 69.8197C7.74662 70.4055 7.74662 71.3552 8.33241 71.941L17.8783 81.487C18.4641 82.0728 19.4139 82.0728 19.9997 81.487C20.5855 80.9012 20.5855 79.9514 19.9997 79.3657L11.5144 70.8804L19.9997 62.3951C20.5855 61.8093 20.5855 60.8596 19.9997 60.2738C19.4139 59.688 18.4641 59.688 17.8783 60.2738L8.33241 69.8197ZM34.8848 69.3804L9.39307 69.3804L9.39307 72.3804L34.8848 72.3804L34.8848 69.3804Z" fill="white"/>
</svg>
