<svg width="163" height="152" viewBox="0 0 163 152" fill="none" xmlns="http://www.w3.org/2000/svg">
<path d="M112.035 52.5417C112.035 55.3935 109.591 57.8379 106.739 57.8379C103.887 57.8379 101.443 55.3935 101.443 52.5417C101.443 49.6899 103.887 47.2455 106.739 47.2455C109.591 47.2455 112.035 49.6899 112.035 52.5417Z" fill="#10FEF0"/>
<path d="M162.553 52.5417C162.553 55.3935 160.109 57.8379 157.257 57.8379C154.405 57.8379 151.961 55.3935 151.961 52.5417C151.961 49.6899 154.405 47.2455 157.257 47.2455C160.109 47.2455 162.553 49.6899 162.553 52.5417Z" fill="#10FEF0"/>
<path d="M112.035 6.09803C112.035 8.94984 109.591 11.3942 106.739 11.3942C103.887 11.3942 101.443 8.94984 101.443 6.09803C101.443 3.24623 103.887 0.801819 106.739 0.801819C109.591 0.801819 112.035 3.24623 112.035 6.09803Z" fill="#10FEF0"/>
<path d="M162.553 6.09803C162.553 8.94984 160.109 11.3942 157.257 11.3942C154.405 11.3942 151.961 8.94984 151.961 6.09803C151.961 3.24623 154.405 0.801819 157.257 0.801819C160.109 0.801819 162.553 3.24623 162.553 6.09803Z" fill="#10FEF0"/>
<path d="M10.9997 52.5417C10.9997 55.3935 8.55532 57.8379 5.70351 57.8379C2.85171 57.8379 0.407302 55.3935 0.407302 52.5417C0.407302 49.6899 2.85171 47.2455 5.70351 47.2455C8.55532 47.2455 10.9997 49.6899 10.9997 52.5417Z" fill="#10FEF0"/>
<path d="M61.5176 52.5417C61.5176 55.3935 59.0731 57.8379 56.2213 57.8379C53.3695 57.8379 50.9251 55.3935 50.9251 52.5417C50.9251 49.6899 53.3695 47.2455 56.2213 47.2455C59.0731 47.2455 61.5176 49.6899 61.5176 52.5417Z" fill="#10FEF0"/>
<path d="M10.9998 6.09803C10.9998 8.94984 8.55542 11.3942 5.70361 11.3942C2.44441 11.8016 0 9.35724 0 6.09803C0 3.24623 2.44441 0.801819 5.29621 0.801819C8.55542 0.801819 10.9998 3.24623 10.9998 6.09803Z" fill="#10FEF0"/>
<path d="M61.5176 6.09803C61.5176 8.94984 59.0732 11.3942 56.2214 11.3942C53.3696 11.3942 50.9252 8.94984 50.9252 6.09803C50.5178 3.24623 52.9622 0.801819 55.814 0.801819C59.0732 0.801819 61.5176 3.24623 61.5176 6.09803Z" fill="#10FEF0"/>
<path d="M112.035 145.752C112.035 148.604 109.591 151.048 106.739 151.048C103.887 151.048 101.443 148.604 101.443 145.752C101.443 142.9 103.887 140.456 106.739 140.456C109.591 140.456 112.035 142.9 112.035 145.752Z" fill="#10FEF0"/>
<path d="M162.553 145.752C162.553 148.604 160.109 151.048 157.257 151.048C154.405 151.048 151.961 148.604 151.961 145.752C151.961 142.9 154.405 140.456 157.257 140.456C160.109 140.456 162.553 142.9 162.553 145.752Z" fill="#10FEF0"/>
<path d="M112.035 99.3084C112.035 102.16 109.591 104.605 106.739 104.605C103.887 104.605 101.443 102.16 101.443 99.3084C101.443 96.4566 103.887 94.0122 106.739 94.0122C109.591 94.0122 112.035 96.4566 112.035 99.3084Z" fill="#10FEF0"/>
<path d="M162.553 99.3084C162.553 102.16 160.109 104.605 157.257 104.605C154.405 104.605 151.961 102.16 151.961 99.3084C151.961 96.4566 154.405 94.0122 157.257 94.0122C160.109 94.0122 162.553 96.4566 162.553 99.3084Z" fill="#10FEF0"/>
<path d="M10.9997 145.752C10.9997 148.604 8.55532 151.048 5.70351 151.048C2.85171 151.048 0.407302 148.604 0.407302 145.752C0.407302 142.9 2.85171 140.456 5.70351 140.456C8.55532 140.456 10.9997 142.9 10.9997 145.752Z" fill="#10FEF0"/>
<path d="M61.5176 145.752C61.5176 148.604 59.0731 151.048 56.2213 151.048C53.3695 151.048 50.9251 148.604 50.9251 145.752C50.9251 142.9 53.3695 140.456 56.2213 140.456C59.0731 140.456 61.5176 142.9 61.5176 145.752Z" fill="#10FEF0"/>
<path d="M10.9998 99.3084C10.9998 102.16 8.55542 104.605 5.70361 104.605C2.44441 105.012 0 102.568 0 99.3084C0 96.4566 2.44441 94.0122 5.29621 94.0122C8.55542 94.0122 10.9998 96.4566 10.9998 99.3084Z" fill="#10FEF0"/>
<path d="M61.5176 99.3084C61.5176 102.16 59.0732 104.605 56.2214 104.605C53.3696 104.605 50.9252 102.16 50.9252 99.3084C50.5178 96.4566 52.9622 94.0122 55.814 94.0122C59.0732 94.0122 61.5176 96.4566 61.5176 99.3084Z" fill="#10FEF0"/>
</svg>
