<svg width="172" height="179" viewBox="0 0 172 179" fill="none" xmlns="http://www.w3.org/2000/svg">
<path d="M40.4793 74.739C41.2138 75.5009 41.2703 76.7559 40.6017 77.4582C39.9331 78.1604 38.7305 78.1093 37.996 77.3474C37.2615 76.5855 37.205 75.3305 37.8736 74.6283C38.5422 73.926 39.7448 73.9771 40.4793 74.739Z" fill="#10FEF0"/>
<path d="M52.3227 62.2993C53.0572 63.0612 53.1136 64.3162 52.4451 65.0184C51.7765 65.7207 50.5739 65.6695 49.8394 64.9077C49.1049 64.1458 49.0484 62.8908 49.717 62.1885C50.3856 61.4863 51.5882 61.5374 52.3227 62.2993Z" fill="#10FEF0"/>
<path d="M28.5177 62.331C29.2522 63.0929 29.3087 64.3479 28.6401 65.0501C27.9716 65.7524 26.7689 65.7013 26.0344 64.9394C25.3 64.1775 25.2435 62.9225 25.9121 62.2202C26.5806 61.518 27.7833 61.5691 28.5177 62.331Z" fill="#10FEF0"/>
<path d="M40.3611 49.8913C41.0956 50.6532 41.1521 51.9082 40.4835 52.6104C39.8149 53.3127 38.6123 53.2615 37.8778 52.4996C37.1433 51.7377 37.0869 50.4828 37.7554 49.7805C38.424 49.0783 39.6266 49.1294 40.3611 49.8913Z" fill="#10FEF0"/>
<path d="M16.7924 99.6186C17.5269 100.38 17.5834 101.635 16.9148 102.338C16.2462 103.04 15.0436 102.989 14.3091 102.227C13.5747 101.465 13.5182 100.21 14.1867 99.5078C14.8553 98.8056 16.058 98.8567 16.7924 99.6186Z" fill="#10FEF0"/>
<path d="M28.6359 87.1788C29.3703 87.9407 29.4268 89.1957 28.7583 89.8979C28.0897 90.6002 26.8871 90.549 26.1526 89.7872C25.4181 89.0253 25.3616 87.7703 26.0302 87.068C26.6988 86.3658 27.9014 86.4169 28.6359 87.1788Z" fill="#10FEF0"/>
<path d="M4.83091 87.2106C5.56539 87.9725 5.62187 89.2274 4.95329 89.9297C4.29413 90.8411 3.09151 90.79 2.2521 89.9192C1.51762 89.1573 1.46113 87.9023 2.12971 87.2001C2.8938 86.3975 4.09642 86.4487 4.83091 87.2106Z" fill="#10FEF0"/>
<path d="M16.6743 74.7708C17.4088 75.5327 17.4653 76.7877 16.7967 77.4899C16.1281 78.1922 14.9255 78.141 14.191 77.3791C13.361 76.7176 13.3046 75.4626 13.9731 74.7603C14.7372 73.9578 15.9398 74.0089 16.6743 74.7708Z" fill="#10FEF0"/>
<path d="M64.4856 99.6413C65.2201 100.403 65.2766 101.658 64.608 102.36C63.9394 103.063 62.7368 103.012 62.0023 102.25C61.2678 101.488 61.2113 100.233 61.8799 99.5306C62.5485 98.8283 63.7511 98.8795 64.4856 99.6413Z" fill="#10FEF0"/>
<path d="M76.329 87.2016C77.0634 87.9635 77.1199 89.2185 76.4513 89.9207C75.7828 90.623 74.5801 90.5719 73.8457 89.81C73.1112 89.0481 73.0547 87.7931 73.7233 87.0908C74.3918 86.3886 75.5945 86.4397 76.329 87.2016Z" fill="#10FEF0"/>
<path d="M52.524 87.2333C53.2585 87.9952 53.315 89.2502 52.6464 89.9525C51.9778 90.6547 50.7752 90.6036 50.0407 89.8417C49.3063 89.0798 49.2498 87.8248 49.9183 87.1226C50.5869 86.4203 51.7896 86.4714 52.524 87.2333Z" fill="#10FEF0"/>
<path d="M64.3674 74.7936C65.1019 75.5555 65.1584 76.8105 64.4898 77.5127C63.8212 78.215 62.6186 78.1639 61.8841 77.402C61.1496 76.6401 61.0931 75.3851 61.7617 74.6828C62.4303 73.9806 63.6329 74.0317 64.3674 74.7936Z" fill="#10FEF0"/>
<path d="M40.7987 124.521C41.5332 125.283 41.5897 126.538 40.9211 127.24C40.2525 127.942 39.0499 127.891 38.3154 127.129C37.5809 126.367 37.5245 125.112 38.193 124.41C38.8616 123.708 40.0642 123.759 40.7987 124.521Z" fill="#10FEF0"/>
<path d="M52.6422 112.081C53.3766 112.843 53.4331 114.098 52.7645 114.8C52.096 115.502 50.8933 115.451 50.1589 114.689C49.4244 113.928 49.3679 112.673 50.0365 111.97C50.705 111.268 51.9077 111.319 52.6422 112.081Z" fill="#10FEF0"/>
<path d="M28.8372 112.113C29.5717 112.875 29.6282 114.13 28.9596 114.832C28.3004 115.743 27.0978 115.692 26.2584 114.822C25.5239 114.06 25.4674 112.805 26.136 112.102C26.9001 111.3 28.1027 111.351 28.8372 112.113Z" fill="#10FEF0"/>
<path d="M40.6806 99.6731C41.4151 100.435 41.4716 101.69 40.803 102.392C40.1344 103.094 38.9318 103.043 38.1973 102.281C37.3673 101.62 37.3108 100.365 37.9794 99.6626C38.7435 98.8601 39.9461 98.9112 40.6806 99.6731Z" fill="#10FEF0"/>
<path d="M40.5526 74.815C41.2871 75.5769 41.3436 76.8319 40.675 77.5341C40.0064 78.2364 38.8038 78.1853 38.0693 77.4234C37.3348 76.6615 37.2783 75.4065 37.9469 74.7042C38.6155 74.002 39.8181 74.0531 40.5526 74.815Z" fill="#10FEF0"/>
<path d="M52.396 62.3753C53.1305 63.1372 53.1869 64.3922 52.5184 65.0944C51.8498 65.7967 50.6472 65.7455 49.9127 64.9836C49.1782 64.2217 49.1217 62.9668 49.7903 62.2645C50.4589 61.5623 51.6615 61.6134 52.396 62.3753Z" fill="#10FEF0"/>
<path d="M28.591 62.407C29.3255 63.1689 29.382 64.4239 28.7134 65.1261C28.0449 65.8284 26.8422 65.7772 26.1078 65.0154C25.3733 64.2535 25.3168 62.9985 25.9854 62.2962C26.6539 61.594 27.8566 61.6451 28.591 62.407Z" fill="#10FEF0"/>
<path d="M40.4344 49.9673C41.1689 50.7292 41.2254 51.9842 40.5568 52.6864C39.8882 53.3887 38.6856 53.3375 37.9511 52.5756C37.2166 51.8137 37.1602 50.5588 37.8287 49.8565C38.4973 49.1543 39.6999 49.2054 40.4344 49.9673Z" fill="#10FEF0"/>
<path d="M16.8657 99.6946C17.6002 100.456 17.6567 101.711 16.9881 102.414C16.3195 103.116 15.1169 103.065 14.3824 102.303C13.648 101.541 13.5915 100.286 14.2601 99.5838C14.9286 98.8816 16.1313 98.9327 16.8657 99.6946Z" fill="#10FEF0"/>
<path d="M28.7092 87.2548C29.4436 88.0167 29.5001 89.2717 28.8316 89.9739C28.163 90.6762 26.9604 90.625 26.2259 89.8631C25.4914 89.1012 25.4349 87.8463 26.1035 87.144C26.7721 86.4418 27.9747 86.4929 28.7092 87.2548Z" fill="#10FEF0"/>
<path d="M4.90421 87.2866C5.63869 88.0484 5.69518 89.3034 5.0266 90.0057C4.36743 90.9171 3.16481 90.8659 2.3254 89.9952C1.59092 89.2333 1.53443 87.9783 2.20301 87.2761C2.9671 86.4735 4.16973 86.5247 4.90421 87.2866Z" fill="#10FEF0"/>
<path d="M16.7476 74.8468C17.4821 75.6087 17.5386 76.8637 16.87 77.5659C16.2014 78.2681 14.9988 78.217 14.2643 77.4551C13.4343 76.7935 13.3779 75.5386 14.0464 74.8363C14.8105 74.0338 16.0132 74.0849 16.7476 74.8468Z" fill="#10FEF0"/>
<path d="M64.5589 99.7174C65.2934 100.479 65.3499 101.734 64.6813 102.436C64.0128 103.139 62.8101 103.088 62.0757 102.326C61.3412 101.564 61.2847 100.309 61.9533 99.6066C62.6218 98.9043 63.8245 98.9555 64.5589 99.7174Z" fill="#10FEF0"/>
<path d="M76.4023 87.2776C77.1368 88.0395 77.1933 89.2945 76.5247 89.9968C75.8561 90.699 74.6535 90.6479 73.919 89.886C73.1845 89.1241 73.1281 87.8691 73.7966 87.1669C74.4652 86.4646 75.6678 86.5157 76.4023 87.2776Z" fill="#10FEF0"/>
<path d="M52.5974 87.3094C53.3319 88.0713 53.3884 89.3262 52.7198 90.0285C52.0512 90.7307 50.8486 90.6796 50.1141 89.9177C49.3796 89.1558 49.3231 87.9008 49.9917 87.1986C50.6603 86.4963 51.8629 86.5475 52.5974 87.3094Z" fill="#10FEF0"/>
<path d="M64.4408 74.8696C65.1753 75.6315 65.2317 76.8865 64.5632 77.5888C63.8946 78.291 62.692 78.2399 61.9575 77.478C61.223 76.7161 61.1665 75.4611 61.8351 74.7589C62.5037 74.0566 63.7063 74.1077 64.4408 74.8696Z" fill="#10FEF0"/>
<path d="M40.8721 124.597C41.6066 125.359 41.6631 126.614 40.9945 127.316C40.3259 128.018 39.1233 127.967 38.3888 127.205C37.6543 126.443 37.5978 125.188 38.2664 124.486C38.935 123.784 40.1376 123.835 40.8721 124.597Z" fill="#10FEF0"/>
<path d="M52.7155 112.157C53.45 112.919 53.5065 114.174 52.8379 114.876C52.1693 115.579 50.9667 115.527 50.2322 114.765C49.4977 114.004 49.4413 112.749 50.1098 112.046C50.7784 111.344 51.981 111.395 52.7155 112.157Z" fill="#10FEF0"/>
<path d="M28.9106 112.189C29.645 112.951 29.7015 114.206 29.0329 114.908C28.3738 115.819 27.1712 115.768 26.3317 114.898C25.5973 114.136 25.5408 112.881 26.2094 112.178C26.9735 111.376 28.1761 111.427 28.9106 112.189Z" fill="#10FEF0"/>
<path d="M40.754 99.7491C41.4885 100.511 41.545 101.766 40.8764 102.468C40.2078 103.17 39.0052 103.119 38.2707 102.357C37.4407 101.696 37.3842 100.441 38.0528 99.7387C38.8169 98.9361 40.0195 98.9872 40.754 99.7491Z" fill="#10FEF0"/>
<path d="M40.5526 74.815C41.2871 75.5769 41.3436 76.8319 40.675 77.5341C40.0064 78.2364 38.8038 78.1853 38.0693 77.4234C37.3348 76.6615 37.2783 75.4065 37.9469 74.7042C38.6155 74.002 39.8181 74.0531 40.5526 74.815Z" fill="#10FEF0"/>
<path d="M52.396 62.3753C53.1305 63.1372 53.1869 64.3922 52.5184 65.0944C51.8498 65.7967 50.6472 65.7455 49.9127 64.9836C49.1782 64.2217 49.1217 62.9668 49.7903 62.2645C50.4589 61.5623 51.6615 61.6134 52.396 62.3753Z" fill="#10FEF0"/>
<path d="M28.591 62.407C29.3255 63.1689 29.382 64.4239 28.7134 65.1261C28.0449 65.8284 26.8422 65.7772 26.1078 65.0154C25.3733 64.2535 25.3168 62.9985 25.9854 62.2962C26.6539 61.594 27.8566 61.6451 28.591 62.407Z" fill="#10FEF0"/>
<path d="M40.4344 49.9673C41.1689 50.7292 41.2254 51.9842 40.5568 52.6864C39.8882 53.3887 38.6856 53.3375 37.9511 52.5756C37.2166 51.8137 37.1602 50.5588 37.8287 49.8565C38.4973 49.1543 39.6999 49.2054 40.4344 49.9673Z" fill="#10FEF0"/>
<path d="M16.8657 99.6946C17.6002 100.456 17.6567 101.711 16.9881 102.414C16.3195 103.116 15.1169 103.065 14.3824 102.303C13.648 101.541 13.5915 100.286 14.2601 99.5838C14.9286 98.8816 16.1313 98.9327 16.8657 99.6946Z" fill="#10FEF0"/>
<path d="M28.7092 87.2548C29.4436 88.0167 29.5001 89.2717 28.8316 89.9739C28.163 90.6762 26.9604 90.625 26.2259 89.8631C25.4914 89.1012 25.4349 87.8463 26.1035 87.144C26.7721 86.4418 27.9747 86.4929 28.7092 87.2548Z" fill="#10FEF0"/>
<path d="M4.90421 87.2866C5.63869 88.0484 5.69518 89.3034 5.0266 90.0057C4.36743 90.9171 3.16481 90.8659 2.3254 89.9952C1.59092 89.2333 1.53443 87.9783 2.20301 87.2761C2.9671 86.4735 4.16973 86.5247 4.90421 87.2866Z" fill="#10FEF0"/>
<path d="M16.7476 74.8468C17.4821 75.6087 17.5386 76.8637 16.87 77.5659C16.2014 78.2681 14.9988 78.217 14.2643 77.4551C13.4343 76.7935 13.3779 75.5386 14.0464 74.8363C14.8105 74.0338 16.0132 74.0849 16.7476 74.8468Z" fill="#10FEF0"/>
<path d="M64.5589 99.7174C65.2934 100.479 65.3499 101.734 64.6813 102.436C64.0128 103.139 62.8101 103.088 62.0757 102.326C61.3412 101.564 61.2847 100.309 61.9533 99.6066C62.6218 98.9043 63.8245 98.9555 64.5589 99.7174Z" fill="#10FEF0"/>
<path d="M76.4023 87.2776C77.1368 88.0395 77.1933 89.2945 76.5247 89.9968C75.8561 90.699 74.6535 90.6479 73.919 89.886C73.1845 89.1241 73.1281 87.8691 73.7966 87.1669C74.4652 86.4646 75.6678 86.5157 76.4023 87.2776Z" fill="#10FEF0"/>
<path d="M52.5974 87.3094C53.3319 88.0713 53.3884 89.3262 52.7198 90.0285C52.0512 90.7307 50.8486 90.6796 50.1141 89.9177C49.3796 89.1558 49.3231 87.9008 49.9917 87.1986C50.6603 86.4963 51.8629 86.5475 52.5974 87.3094Z" fill="#10FEF0"/>
<path d="M64.4408 74.8696C65.1753 75.6315 65.2317 76.8865 64.5632 77.5888C63.8946 78.291 62.692 78.2399 61.9575 77.478C61.223 76.7161 61.1665 75.4611 61.8351 74.7589C62.5037 74.0566 63.7063 74.1077 64.4408 74.8696Z" fill="#10FEF0"/>
<path d="M40.8721 124.597C41.6066 125.359 41.6631 126.614 40.9945 127.316C40.3259 128.018 39.1233 127.967 38.3888 127.205C37.6543 126.443 37.5978 125.188 38.2664 124.486C38.935 123.784 40.1376 123.835 40.8721 124.597Z" fill="#10FEF0"/>
<path d="M52.7155 112.157C53.45 112.919 53.5065 114.174 52.8379 114.876C52.1693 115.579 50.9667 115.527 50.2322 114.765C49.4977 114.004 49.4413 112.749 50.1098 112.046C50.7784 111.344 51.981 111.395 52.7155 112.157Z" fill="#10FEF0"/>
<path d="M28.9106 112.189C29.645 112.951 29.7015 114.206 29.0329 114.908C28.3738 115.819 27.1712 115.768 26.3317 114.898C25.5973 114.136 25.5408 112.881 26.2094 112.178C26.9735 111.376 28.1761 111.427 28.9106 112.189Z" fill="#10FEF0"/>
<path d="M40.754 99.7491C41.4885 100.511 41.545 101.766 40.8764 102.468C40.2078 103.17 39.0052 103.119 38.2707 102.357C37.4407 101.696 37.3842 100.441 38.0528 99.7387C38.8169 98.9361 40.0195 98.9872 40.754 99.7491Z" fill="#10FEF0"/>
<path d="M40.5526 74.815C41.2871 75.5769 41.3436 76.8319 40.675 77.5341C40.0064 78.2364 38.8038 78.1853 38.0693 77.4234C37.3348 76.6615 37.2783 75.4065 37.9469 74.7042C38.6155 74.002 39.8181 74.0531 40.5526 74.815Z" fill="#10FEF0"/>
<path d="M52.396 62.3753C53.1305 63.1372 53.1869 64.3922 52.5184 65.0944C51.8498 65.7967 50.6472 65.7455 49.9127 64.9836C49.1782 64.2217 49.1217 62.9668 49.7903 62.2645C50.4589 61.5623 51.6615 61.6134 52.396 62.3753Z" fill="#10FEF0"/>
<path d="M28.591 62.407C29.3255 63.1689 29.382 64.4239 28.7134 65.1261C28.0449 65.8284 26.8422 65.7772 26.1078 65.0154C25.3733 64.2535 25.3168 62.9985 25.9854 62.2962C26.6539 61.594 27.8566 61.6451 28.591 62.407Z" fill="#10FEF0"/>
<path d="M40.4344 49.9673C41.1689 50.7292 41.2254 51.9842 40.5568 52.6864C39.8882 53.3887 38.6856 53.3375 37.9511 52.5756C37.2166 51.8137 37.1602 50.5588 37.8287 49.8565C38.4973 49.1543 39.6999 49.2054 40.4344 49.9673Z" fill="#10FEF0"/>
<path d="M16.8657 99.6946C17.6002 100.456 17.6567 101.711 16.9881 102.414C16.3195 103.116 15.1169 103.065 14.3824 102.303C13.648 101.541 13.5915 100.286 14.2601 99.5838C14.9286 98.8816 16.1313 98.9327 16.8657 99.6946Z" fill="#10FEF0"/>
<path d="M28.7092 87.2548C29.4436 88.0167 29.5001 89.2717 28.8316 89.9739C28.163 90.6762 26.9604 90.625 26.2259 89.8631C25.4914 89.1012 25.4349 87.8463 26.1035 87.144C26.7721 86.4418 27.9747 86.4929 28.7092 87.2548Z" fill="#10FEF0"/>
<path d="M4.90421 87.2866C5.63869 88.0484 5.69518 89.3034 5.0266 90.0057C4.36743 90.9171 3.16481 90.8659 2.3254 89.9952C1.59092 89.2333 1.53443 87.9783 2.20301 87.2761C2.9671 86.4735 4.16973 86.5247 4.90421 87.2866Z" fill="#10FEF0"/>
<path d="M16.7476 74.8468C17.4821 75.6087 17.5386 76.8637 16.87 77.5659C16.2014 78.2681 14.9988 78.217 14.2643 77.4551C13.4343 76.7935 13.3779 75.5386 14.0464 74.8363C14.8105 74.0338 16.0132 74.0849 16.7476 74.8468Z" fill="#10FEF0"/>
<path d="M64.5589 99.7174C65.2934 100.479 65.3499 101.734 64.6813 102.436C64.0128 103.139 62.8101 103.088 62.0757 102.326C61.3412 101.564 61.2847 100.309 61.9533 99.6066C62.6218 98.9043 63.8245 98.9555 64.5589 99.7174Z" fill="#10FEF0"/>
<path d="M76.4023 87.2776C77.1368 88.0395 77.1933 89.2945 76.5247 89.9968C75.8561 90.699 74.6535 90.6479 73.919 89.886C73.1845 89.1241 73.1281 87.8691 73.7966 87.1669C74.4652 86.4646 75.6678 86.5157 76.4023 87.2776Z" fill="#10FEF0"/>
<path d="M52.5974 87.3094C53.3319 88.0713 53.3884 89.3262 52.7198 90.0285C52.0512 90.7307 50.8486 90.6796 50.1141 89.9177C49.3796 89.1558 49.3231 87.9008 49.9917 87.1986C50.6603 86.4963 51.8629 86.5475 52.5974 87.3094Z" fill="#10FEF0"/>
<path d="M64.4408 74.8696C65.1753 75.6315 65.2317 76.8865 64.5632 77.5888C63.8946 78.291 62.692 78.2399 61.9575 77.478C61.223 76.7161 61.1665 75.4611 61.8351 74.7589C62.5037 74.0566 63.7063 74.1077 64.4408 74.8696Z" fill="#10FEF0"/>
<path d="M40.8721 124.597C41.6066 125.359 41.6631 126.614 40.9945 127.316C40.3259 128.018 39.1233 127.967 38.3888 127.205C37.6543 126.443 37.5978 125.188 38.2664 124.486C38.935 123.784 40.1376 123.835 40.8721 124.597Z" fill="#10FEF0"/>
<path d="M52.7155 112.157C53.45 112.919 53.5065 114.174 52.8379 114.876C52.1693 115.579 50.9667 115.527 50.2322 114.765C49.4977 114.004 49.4413 112.749 50.1098 112.046C50.7784 111.344 51.981 111.395 52.7155 112.157Z" fill="#10FEF0"/>
<path d="M28.9106 112.189C29.645 112.951 29.7015 114.206 29.0329 114.908C28.3738 115.819 27.1712 115.768 26.3317 114.898C25.5973 114.136 25.5408 112.881 26.2094 112.178C26.9735 111.376 28.1761 111.427 28.9106 112.189Z" fill="#10FEF0"/>
<path d="M40.754 99.7491C41.4885 100.511 41.545 101.766 40.8764 102.468C40.2078 103.17 39.0052 103.119 38.2707 102.357C37.4407 101.696 37.3842 100.441 38.0528 99.7387C38.8169 98.9361 40.0195 98.9872 40.754 99.7491Z" fill="#10FEF0"/>
<path d="M85.8858 27.1993C86.6203 27.9612 86.6768 29.2162 86.0082 29.9184C85.3396 30.6207 84.137 30.5695 83.4025 29.8076C82.668 29.0457 82.6115 27.7908 83.2801 27.0885C83.9487 26.3863 85.1513 26.4374 85.8858 27.1993Z" fill="#10FEF0"/>
<path d="M97.7292 14.7596C98.4636 15.5215 98.5201 16.7765 97.8516 17.4787C97.183 18.1809 95.9803 18.1298 95.2459 17.3679C94.5114 16.606 94.4549 15.351 95.1235 14.6488C95.7921 13.9466 96.9947 13.9977 97.7292 14.7596Z" fill="#10FEF0"/>
<path d="M73.9242 14.7913C74.6587 15.5532 74.7152 16.8082 74.0466 17.5104C73.378 18.2127 72.1754 18.1615 71.4409 17.3996C70.7065 16.6377 70.65 15.3828 71.3186 14.6805C71.9871 13.9783 73.1898 14.0294 73.9242 14.7913Z" fill="#10FEF0"/>
<path d="M85.7676 2.35157C86.5021 3.11347 86.5586 4.36845 85.89 5.07069C85.2214 5.77294 84.0188 5.72181 83.2843 4.95991C82.5498 4.19802 82.4933 2.94304 83.1619 2.24079C83.8305 1.53855 85.0331 1.58968 85.7676 2.35157Z" fill="#10FEF0"/>
<path d="M62.1989 52.0789C62.9334 52.8408 62.9899 54.0957 62.3213 54.798C61.6527 55.5002 60.4501 55.4491 59.7156 54.6872C58.9812 53.9253 58.9247 52.6703 59.5932 51.9681C60.2618 51.2658 61.4644 51.317 62.1989 52.0789Z" fill="#10FEF0"/>
<path d="M74.0424 39.6391C74.7768 40.401 74.8333 41.656 74.1647 42.3582C73.4962 43.0604 72.2935 43.0093 71.5591 42.2474C70.8246 41.4855 70.7681 40.2305 71.4367 39.5283C72.1053 38.8261 73.3079 38.8772 74.0424 39.6391Z" fill="#10FEF0"/>
<path d="M50.2374 39.6708C50.9719 40.4327 51.0284 41.6877 50.3598 42.3899C49.7006 43.3014 48.498 43.2502 47.6586 42.3795C46.9241 41.6176 46.8676 40.3626 47.5362 39.6604C48.3003 38.8578 49.5029 38.9089 50.2374 39.6708Z" fill="#10FEF0"/>
<path d="M62.0808 27.2311C62.8153 27.993 62.8718 29.2479 62.2032 29.9502C61.5346 30.6524 60.332 30.6013 59.5975 29.8394C58.7675 29.1778 58.711 27.9228 59.3796 27.2206C60.1437 26.418 61.3463 26.4692 62.0808 27.2311Z" fill="#10FEF0"/>
<path d="M109.892 52.1016C110.627 52.8635 110.683 54.1185 110.014 54.8207C109.346 55.5229 108.143 55.4718 107.409 54.7099C106.674 53.948 106.618 52.693 107.286 51.9908C107.955 51.2886 109.158 51.3397 109.892 52.1016Z" fill="#10FEF0"/>
<path d="M121.735 39.6619C122.47 40.4238 122.526 41.6787 121.858 42.381C121.189 43.0832 119.987 43.0321 119.252 42.2702C118.518 41.5083 118.461 40.2533 119.13 39.5511C119.798 38.8488 121.001 38.9 121.735 39.6619Z" fill="#10FEF0"/>
<path d="M97.9305 39.6936C98.665 40.4555 98.7215 41.7104 98.0529 42.4127C97.3843 43.1149 96.1817 43.0638 95.4472 42.3019C94.7127 41.54 94.6563 40.285 95.3248 39.5828C95.9934 38.8806 97.196 38.9317 97.9305 39.6936Z" fill="#10FEF0"/>
<path d="M109.774 27.2539C110.508 28.0157 110.565 29.2707 109.896 29.973C109.228 30.6752 108.025 30.6241 107.291 29.8622C106.556 29.1003 106.5 27.8453 107.168 27.1431C107.837 26.4408 109.039 26.492 109.774 27.2539Z" fill="#10FEF0"/>
<path d="M86.2052 76.9811C86.9397 77.743 86.9962 78.998 86.3276 79.7003C85.659 80.4025 84.4564 80.3514 83.7219 79.5895C82.9874 78.8276 82.9309 77.5726 83.5995 76.8704C84.2681 76.1681 85.4707 76.2192 86.2052 76.9811Z" fill="#10FEF0"/>
<path d="M98.0486 64.5414C98.7831 65.3033 98.8396 66.5582 98.171 67.2605C97.5025 67.9627 96.2998 67.9116 95.5654 67.1497C94.8309 66.3878 94.7744 65.1328 95.443 64.4306C96.1115 63.7283 97.3142 63.7795 98.0486 64.5414Z" fill="#10FEF0"/>
<path d="M74.2437 64.5731C74.9782 65.335 75.0347 66.59 74.3661 67.2922C73.7069 68.2036 72.5043 68.1525 71.6649 67.2818C70.9304 66.5199 70.8739 65.2649 71.5425 64.5627C72.3066 63.7601 73.5092 63.8112 74.2437 64.5731Z" fill="#10FEF0"/>
<path d="M86.0871 52.1333C86.8216 52.8952 86.8781 54.1502 86.2095 54.8525C85.5409 55.5547 84.3383 55.5036 83.6038 54.7417C82.7738 54.0801 82.7173 52.8251 83.3859 52.1229C84.15 51.3203 85.3526 51.3714 86.0871 52.1333Z" fill="#10FEF0"/>
<path d="M90.2063 122.896C90.9408 123.658 90.9973 124.913 90.3287 125.615C89.6601 126.317 88.4575 126.266 87.723 125.504C86.9885 124.742 86.932 123.487 87.6006 122.785C88.2692 122.083 89.4718 122.134 90.2063 122.896Z" fill="#10FEF0"/>
<path d="M102.05 110.456C102.784 111.218 102.841 112.473 102.172 113.175C101.503 113.878 100.301 113.826 99.5664 113.065C98.8319 112.303 98.7754 111.048 99.444 110.345C100.113 109.643 101.315 109.694 102.05 110.456Z" fill="#10FEF0"/>
<path d="M78.2447 110.488C78.9792 111.25 79.0357 112.505 78.3671 113.207C77.6985 113.909 76.4959 113.858 75.7614 113.096C75.027 112.334 74.9705 111.079 75.6391 110.377C76.3076 109.675 77.5103 109.726 78.2447 110.488Z" fill="#10FEF0"/>
<path d="M90.0881 98.0482C90.8226 98.8101 90.8791 100.065 90.2105 100.767C89.5419 101.47 88.3393 101.418 87.6048 100.657C86.8703 99.8947 86.8138 98.6397 87.4824 97.9374C88.151 97.2352 89.3536 97.2863 90.0881 98.0482Z" fill="#10FEF0"/>
<path d="M66.5194 147.776C67.2539 148.537 67.3104 149.792 66.6418 150.495C65.9732 151.197 64.7706 151.146 64.0361 150.384C63.3016 149.622 63.2452 148.367 63.9137 147.665C64.5823 146.962 65.7849 147.014 66.5194 147.776Z" fill="#10FEF0"/>
<path d="M78.3629 135.336C79.0973 136.098 79.1538 137.353 78.4852 138.055C77.8167 138.757 76.614 138.706 75.8796 137.944C75.1451 137.182 75.0886 135.927 75.7572 135.225C76.4257 134.523 77.6284 134.574 78.3629 135.336Z" fill="#10FEF0"/>
<path d="M54.5579 135.367C55.2924 136.129 55.3489 137.384 54.6803 138.087C54.0211 138.998 52.8185 138.947 51.9791 138.076C51.2446 137.314 51.1881 136.059 51.8567 135.357C52.6208 134.554 53.8234 134.606 54.5579 135.367Z" fill="#10FEF0"/>
<path d="M66.4013 122.928C67.1358 123.69 67.1923 124.945 66.5237 125.647C65.8551 126.349 64.6525 126.298 63.918 125.536C63.088 124.874 63.0315 123.619 63.7001 122.917C64.4642 122.115 65.6668 122.166 66.4013 122.928Z" fill="#10FEF0"/>
<path d="M114.213 147.798C114.947 148.56 115.004 149.815 114.335 150.517C113.666 151.22 112.464 151.168 111.729 150.407C110.995 149.645 110.938 148.39 111.607 147.687C112.275 146.985 113.478 147.036 114.213 147.798Z" fill="#10FEF0"/>
<path d="M126.056 135.359C126.79 136.12 126.847 137.375 126.178 138.078C125.51 138.78 124.307 138.729 123.573 137.967C122.838 137.205 122.782 135.95 123.45 135.248C124.119 134.545 125.321 134.597 126.056 135.359Z" fill="#10FEF0"/>
<path d="M102.251 135.39C102.986 136.152 103.042 137.407 102.373 138.109C101.705 138.812 100.502 138.76 99.7677 137.999C99.0332 137.237 98.9768 135.982 99.6453 135.279C100.314 134.577 101.517 134.628 102.251 135.39Z" fill="#10FEF0"/>
<path d="M114.094 122.951C114.829 123.712 114.885 124.967 114.217 125.67C113.548 126.372 112.346 126.321 111.611 125.559C110.877 124.797 110.82 123.542 111.489 122.84C112.157 122.137 113.36 122.189 114.094 122.951Z" fill="#10FEF0"/>
<path d="M90.5257 172.678C91.2602 173.44 91.3167 174.695 90.6481 175.397C89.9795 176.099 88.7769 176.048 88.0424 175.286C87.3079 174.524 87.2514 173.269 87.92 172.567C88.5886 171.865 89.7912 171.916 90.5257 172.678Z" fill="#10FEF0"/>
<path d="M102.369 160.238C103.104 161 103.16 162.255 102.492 162.957C101.823 163.659 100.62 163.608 99.8858 162.846C99.1514 162.084 99.0949 160.829 99.7635 160.127C100.432 159.425 101.635 159.476 102.369 160.238Z" fill="#10FEF0"/>
<path d="M78.5642 160.27C79.2987 161.032 79.3552 162.287 78.6866 162.989C78.0274 163.9 76.8248 163.849 75.9854 162.978C75.2509 162.217 75.1944 160.962 75.863 160.259C76.6271 159.457 77.8297 159.508 78.5642 160.27Z" fill="#10FEF0"/>
<path d="M90.4076 147.83C91.1421 148.592 91.1986 149.847 90.53 150.549C89.8614 151.251 88.6588 151.2 87.9243 150.438C87.0943 149.777 87.0378 148.522 87.7064 147.82C88.4705 147.017 89.6731 147.068 90.4076 147.83Z" fill="#10FEF0"/>
<path d="M132.19 75.2318C132.925 75.9937 132.981 77.2487 132.312 77.9509C131.644 78.6532 130.441 78.6021 129.707 77.8402C128.972 77.0783 128.916 75.8233 129.584 75.1211C130.253 74.4188 131.456 74.4699 132.19 75.2318Z" fill="#10FEF0"/>
<path d="M144.033 62.7921C144.768 63.554 144.824 64.809 144.156 65.5112C143.487 66.2135 142.285 66.1623 141.55 65.4005C140.816 64.6386 140.759 63.3836 141.428 62.6813C142.096 61.9791 143.299 62.0302 144.033 62.7921Z" fill="#10FEF0"/>
<path d="M120.228 62.8238C120.963 63.5857 121.019 64.8407 120.351 65.5429C119.682 66.2452 118.48 66.1941 117.745 65.4322C117.011 64.6703 116.954 63.4153 117.623 62.713C118.291 62.0108 119.494 62.0619 120.228 62.8238Z" fill="#10FEF0"/>
<path d="M132.072 50.3841C132.806 51.146 132.863 52.401 132.194 53.1032C131.526 53.8055 130.323 53.7543 129.589 52.9924C128.854 52.2305 128.798 50.9756 129.466 50.2733C130.135 49.5711 131.337 49.6222 132.072 50.3841Z" fill="#10FEF0"/>
<path d="M108.503 100.111C109.238 100.873 109.294 102.128 108.626 102.831C107.957 103.533 106.754 103.482 106.02 102.72C105.285 101.958 105.229 100.703 105.898 100.001C106.566 99.2984 107.769 99.3495 108.503 100.111Z" fill="#10FEF0"/>
<path d="M120.347 87.6716C121.081 88.4335 121.138 89.6885 120.469 90.3907C119.8 91.093 118.598 91.0418 117.863 90.2799C117.129 89.5181 117.072 88.2631 117.741 87.5608C118.41 86.8586 119.612 86.9097 120.347 87.6716Z" fill="#10FEF0"/>
<path d="M96.5417 87.7034C97.2761 88.4653 97.3326 89.7202 96.664 90.4225C96.0049 91.3339 94.8023 91.2828 93.9629 90.412C93.2284 89.6501 93.1719 88.3951 93.8405 87.6929C94.6046 86.8903 95.8072 86.9415 96.5417 87.7034Z" fill="#10FEF0"/>
<path d="M108.385 75.2636C109.12 76.0255 109.176 77.2805 108.507 77.9827C107.839 78.6849 106.636 78.6338 105.902 77.8719C105.072 77.2103 105.015 75.9554 105.684 75.2531C106.448 74.4506 107.651 74.5017 108.385 75.2636Z" fill="#10FEF0"/>
<path d="M156.196 100.134C156.931 100.896 156.987 102.151 156.319 102.853C155.65 103.556 154.448 103.504 153.713 102.742C152.979 101.981 152.922 100.726 153.591 100.023C154.259 99.3211 155.462 99.3722 156.196 100.134Z" fill="#10FEF0"/>
<path d="M168.04 87.6944C168.774 88.4563 168.831 89.7113 168.162 90.4135C167.494 91.1158 166.291 91.0647 165.556 90.3028C164.822 89.5409 164.765 88.2859 165.434 87.5836C166.103 86.8814 167.305 86.9325 168.04 87.6944Z" fill="#10FEF0"/>
<path d="M144.235 87.7261C144.969 88.488 145.026 89.743 144.357 90.4453C143.689 91.1475 142.486 91.0964 141.751 90.3345C141.017 89.5726 140.961 88.3176 141.629 87.6154C142.298 86.9131 143.5 86.9642 144.235 87.7261Z" fill="#10FEF0"/>
<path d="M156.078 75.2864C156.813 76.0483 156.869 77.3033 156.201 78.0055C155.532 78.7078 154.329 78.6567 153.595 77.8948C152.86 77.1329 152.804 75.8779 153.472 75.1756C154.141 74.4734 155.344 74.5245 156.078 75.2864Z" fill="#10FEF0"/>
<path d="M132.509 125.014C133.244 125.776 133.3 127.031 132.632 127.733C131.963 128.435 130.761 128.384 130.026 127.622C129.292 126.86 129.235 125.605 129.904 124.903C130.572 124.201 131.775 124.252 132.509 125.014Z" fill="#10FEF0"/>
<path d="M144.353 112.574C145.087 113.336 145.144 114.591 144.475 115.293C143.807 115.995 142.604 115.944 141.87 115.182C141.135 114.42 141.079 113.165 141.747 112.463C142.416 111.761 143.618 111.812 144.353 112.574Z" fill="#10FEF0"/>
<path d="M120.548 112.606C121.282 113.368 121.339 114.623 120.67 115.325C120.011 116.236 118.809 116.185 117.969 115.314C117.235 114.552 117.178 113.297 117.847 112.595C118.611 111.793 119.813 111.844 120.548 112.606Z" fill="#10FEF0"/>
<path d="M132.391 100.166C133.126 100.928 133.182 102.183 132.514 102.885C131.845 103.587 130.643 103.536 129.908 102.774C129.078 102.113 129.022 100.858 129.69 100.155C130.454 99.3529 131.657 99.404 132.391 100.166Z" fill="#10FEF0"/>
</svg>
