<svg width="222" height="222" viewBox="0 0 222 222" fill="none" xmlns="http://www.w3.org/2000/svg">
<path d="M115.551 72.5243C117.617 74.4908 117.701 77.9467 115.735 80.0121C113.768 82.0775 110.313 82.1622 108.247 80.1958C106.182 78.2293 106.097 74.7734 108.063 72.708C110.03 70.6427 113.486 70.5579 115.551 72.5243Z" fill="#A122DF"/>
<path d="M150.386 35.9376C152.451 37.9041 152.536 41.36 150.569 43.4254C148.603 45.4908 145.147 45.5755 143.082 43.6091C141.016 41.6426 140.931 38.1867 142.898 36.1214C144.864 34.056 148.32 33.9712 150.386 35.9376Z" fill="#A122DF"/>
<path d="M81.915 40.499C83.9804 42.4655 84.0651 45.9214 82.0987 47.9868C80.1322 50.0522 76.6763 50.1369 74.6109 48.1705C72.5456 46.204 72.4608 42.7481 74.4272 40.6828C76.3937 38.6174 79.8496 38.5326 81.915 40.499Z" fill="#A122DF"/>
<path d="M116.749 3.91234C118.815 5.87881 118.9 9.33469 116.933 11.4001C114.967 13.4655 111.511 13.5502 109.445 11.5838C107.38 9.61731 107.295 6.16144 109.262 4.09606C111.228 2.03067 114.684 1.94587 116.749 3.91234Z" fill="#A122DF"/>
<path d="M45.882 145.698C47.9474 147.665 48.0321 151.12 46.0657 153.186C44.0992 155.251 40.6433 155.336 38.578 153.37C36.5126 151.403 36.4278 147.947 38.3942 145.882C40.3607 143.816 43.8166 143.732 45.882 145.698Z" fill="#A122DF"/>
<path d="M80.7166 109.111C82.782 111.078 82.8668 114.534 80.9003 116.599C78.9338 118.664 75.478 118.749 73.4126 116.783C71.3472 114.816 71.2624 111.36 73.2289 109.295C75.1953 107.23 78.6512 107.145 80.7166 109.111Z" fill="#A122DF"/>
<path d="M12.2458 113.673C14.3112 115.639 14.396 119.095 12.4295 121.16C10.4772 123.802 7.02129 123.887 4.66085 121.639C2.59546 119.673 2.51068 116.217 4.47714 114.151C6.72453 111.791 10.1804 111.706 12.2458 113.673Z" fill="#A122DF"/>
<path d="M47.0804 77.0859C49.1458 79.0523 49.2306 82.5082 47.2641 84.5736C45.2976 86.639 41.8418 86.7238 39.7764 84.7573C37.4301 83.0859 37.3453 79.63 39.3117 77.5646C41.5591 75.2042 45.015 75.1194 47.0804 77.0859Z" fill="#A122DF"/>
<path d="M183.058 136.798C185.123 138.764 185.208 142.22 183.241 144.285C181.275 146.351 177.819 146.436 175.754 144.469C173.688 142.503 173.603 139.047 175.57 136.981C177.536 134.916 180.992 134.831 183.058 136.798Z" fill="#A122DF"/>
<path d="M217.892 100.211C219.957 102.177 220.042 105.633 218.076 107.699C216.109 109.764 212.653 109.849 210.588 107.882C208.523 105.916 208.438 102.46 210.404 100.395C212.371 98.3293 215.827 98.2445 217.892 100.211Z" fill="#A122DF"/>
<path d="M149.421 104.772C151.487 106.739 151.572 110.195 149.605 112.26C147.639 114.325 144.183 114.41 142.117 112.444C140.052 110.477 139.967 107.021 141.934 104.956C143.9 102.891 147.356 102.806 149.421 104.772Z" fill="#A122DF"/>
<path d="M184.256 68.1857C186.321 70.1521 186.406 73.608 184.44 75.6734C182.473 77.7388 179.017 77.8236 176.952 75.8571C174.886 73.8906 174.802 70.4348 176.768 68.3694C178.735 66.304 182.19 66.2192 184.256 68.1857Z" fill="#A122DF"/>
<path d="M113.388 209.971C115.454 211.938 115.539 215.394 113.572 217.459C111.606 219.525 108.15 219.609 106.084 217.643C104.019 215.676 103.934 212.221 105.901 210.155C107.867 208.09 111.323 208.005 113.388 209.971Z" fill="#A122DF"/>
<path d="M148.223 173.385C150.288 175.351 150.373 178.807 148.407 180.872C146.44 182.938 142.984 183.022 140.919 181.056C138.854 179.09 138.769 175.634 140.735 173.568C142.702 171.503 146.158 171.418 148.223 173.385Z" fill="#A122DF"/>
<path d="M79.7522 177.946C81.8176 179.913 81.9024 183.368 79.9359 185.434C77.9836 188.075 74.5277 188.16 72.1673 185.913C70.1019 183.946 70.0171 180.49 71.9836 178.425C74.231 176.064 77.6868 175.98 79.7522 177.946Z" fill="#A122DF"/>
<path d="M114.587 141.359C116.652 143.326 116.737 146.782 114.771 148.847C112.804 150.912 109.348 150.997 107.283 149.031C104.936 147.359 104.852 143.903 106.818 141.838C109.066 139.478 112.521 139.393 114.587 141.359Z" fill="#A122DF"/>
</svg>
