<svg width="252" height="45" viewBox="0 0 252 45" fill="none" xmlns="http://www.w3.org/2000/svg">
<path d="M72.9052 29V16.1504H82.1249V29H81.2372V16.9678H73.8105V29H72.9052ZM93.2037 19.2793C94.2525 19.2793 95.0377 19.543 95.5592 20.0703C96.0807 20.5977 96.3414 21.4385 96.3414 22.5928V29H95.6559L95.4977 27.3301H95.4449C95.2398 27.6875 94.9908 28.0068 94.6979 28.2881C94.4049 28.5635 94.0445 28.7803 93.6168 28.9385C93.1949 29.0967 92.6793 29.1758 92.0699 29.1758C91.4547 29.1758 90.9273 29.0732 90.4879 28.8682C90.0543 28.6631 89.7174 28.3643 89.4771 27.9717C89.2428 27.5791 89.1256 27.1016 89.1256 26.5391C89.1256 25.5898 89.5182 24.8691 90.3033 24.377C91.0885 23.8789 92.2164 23.5977 93.6871 23.5332L95.4625 23.4453V22.751C95.4625 21.7725 95.2691 21.0752 94.8824 20.6592C94.4957 20.2432 93.9244 20.0352 93.1686 20.0352C92.6764 20.0352 92.2018 20.0996 91.7447 20.2285C91.2936 20.3516 90.8336 20.5303 90.3648 20.7646L90.0836 20.0264C90.5406 19.8096 91.0299 19.6309 91.5514 19.4902C92.0787 19.3496 92.6295 19.2793 93.2037 19.2793ZM95.4537 24.1396L93.7838 24.21C92.5709 24.2686 91.648 24.4854 91.0152 24.8604C90.3824 25.2354 90.066 25.7979 90.066 26.5479C90.066 27.1514 90.2535 27.6143 90.6285 27.9365C91.0094 28.2588 91.5367 28.4199 92.2105 28.4199C93.2594 28.4199 94.0592 28.1211 94.61 27.5234C95.1666 26.9258 95.4479 26.1113 95.4537 25.0801V24.1396ZM110.892 21.7754C110.892 22.3789 110.734 22.8535 110.417 23.1992C110.107 23.5449 109.694 23.7793 109.178 23.9023V23.9551C109.805 24.0488 110.309 24.2861 110.69 24.667C111.076 25.042 111.27 25.5811 111.27 26.2842C111.27 26.8408 111.147 27.3213 110.901 27.7256C110.655 28.1299 110.277 28.4434 109.767 28.666C109.263 28.8887 108.616 29 107.824 29H103.738V19.4463H107.719C108.422 19.4463 109.008 19.5371 109.477 19.7188C109.946 19.8945 110.297 20.1553 110.532 20.501C110.772 20.8408 110.892 21.2656 110.892 21.7754ZM110.347 26.2842C110.347 25.5986 110.116 25.1064 109.653 24.8076C109.19 24.5088 108.51 24.3594 107.614 24.3594H104.634V28.2441H107.666C108.563 28.2441 109.234 28.0859 109.679 27.7695C110.124 27.4473 110.347 26.9521 110.347 26.2842ZM109.987 21.8457C109.987 21.3418 109.808 20.9463 109.45 20.6592C109.093 20.3662 108.487 20.2197 107.631 20.2197H104.634V23.5771H107.543C108.387 23.5771 109.005 23.4336 109.398 23.1465C109.79 22.8535 109.987 22.4199 109.987 21.8457ZM124.871 29H123.983V20.2197H120.644C120.532 21.7256 120.4 23.0381 120.248 24.1572C120.096 25.2705 119.899 26.1934 119.659 26.9258C119.419 27.6523 119.12 28.1943 118.763 28.5518C118.405 28.9092 117.963 29.0879 117.436 29.0879C117.283 29.0879 117.148 29.0791 117.031 29.0615C116.914 29.0498 116.82 29.0322 116.75 29.0088V28.2881C116.82 28.3057 116.899 28.3203 116.987 28.332C117.075 28.3379 117.184 28.3408 117.312 28.3408C117.611 28.3408 117.878 28.2295 118.112 28.0068C118.347 27.7783 118.555 27.4326 118.736 26.9697C118.924 26.5068 119.085 25.9238 119.22 25.2207C119.354 24.5117 119.472 23.6768 119.571 22.7158C119.677 21.7549 119.77 20.665 119.853 19.4463H124.871V29ZM144.115 24.21C144.115 25.1768 143.968 26.0352 143.675 26.7852C143.388 27.5352 142.955 28.1211 142.375 28.543C141.795 28.9648 141.065 29.1758 140.186 29.1758C139.36 29.1758 138.663 28.9795 138.094 28.5869C137.532 28.1885 137.101 27.6318 136.802 26.917C136.504 26.2021 136.342 25.3643 136.319 24.4033H133.252V29H132.364V19.4463H133.252V23.6211H136.328C136.381 22.8125 136.553 22.0801 136.846 21.4238C137.145 20.7617 137.576 20.2373 138.138 19.8506C138.701 19.458 139.401 19.2617 140.239 19.2617C141.13 19.2617 141.859 19.4785 142.427 19.9121C143.002 20.3457 143.426 20.9375 143.702 21.6875C143.977 22.4316 144.115 23.2725 144.115 24.21ZM137.233 24.21C137.233 25.0068 137.333 25.7246 137.532 26.3633C137.731 26.9961 138.048 27.4941 138.481 27.8574C138.921 28.2207 139.495 28.4023 140.204 28.4023C140.901 28.4023 141.469 28.2266 141.909 27.875C142.354 27.5234 142.679 27.0312 142.884 26.3984C143.095 25.7656 143.201 25.0361 143.201 24.21C143.201 23.4014 143.098 22.6836 142.893 22.0566C142.688 21.4297 142.366 20.9375 141.926 20.5801C141.493 20.2227 140.924 20.0439 140.221 20.0439C139.518 20.0439 138.947 20.2227 138.507 20.5801C138.068 20.9375 137.746 21.4326 137.541 22.0654C137.336 22.6924 137.233 23.4072 137.233 24.21ZM156.266 19.4463H157.294L152.97 24.0869L157.558 29H156.459L151.959 24.1572V29H151.063V19.4463H151.959V24.0869L156.266 19.4463ZM172.86 29V16.1504H180.041V16.9678H173.765V21.793H176.165C177.184 21.793 178.022 21.9189 178.678 22.1709C179.335 22.417 179.821 22.7979 180.137 23.3135C180.46 23.8291 180.621 24.4912 180.621 25.2998C180.621 26.5068 180.269 27.4268 179.566 28.0596C178.869 28.6865 177.805 29 176.376 29H172.86ZM173.765 28.2002H176.244C177.439 28.2002 178.309 27.9688 178.854 27.5059C179.405 27.0371 179.68 26.3018 179.68 25.2998C179.68 24.6025 179.543 24.0576 179.267 23.665C178.992 23.2725 178.582 22.9971 178.037 22.8389C177.498 22.6807 176.83 22.6016 176.033 22.6016H173.765V28.2002ZM195.602 24.21C195.602 24.9482 195.511 25.6221 195.329 26.2314C195.148 26.835 194.878 27.3564 194.521 27.7959C194.163 28.2354 193.718 28.5752 193.185 28.8154C192.658 29.0557 192.042 29.1758 191.339 29.1758C190.671 29.1758 190.077 29.0586 189.555 28.8242C189.034 28.584 188.591 28.2441 188.228 27.8047C187.87 27.3652 187.598 26.8438 187.411 26.2402C187.223 25.6309 187.129 24.9541 187.129 24.21C187.129 23.1846 187.299 22.3027 187.639 21.5645C187.985 20.8203 188.477 20.252 189.116 19.8594C189.76 19.4609 190.531 19.2617 191.427 19.2617C192.353 19.2617 193.123 19.4727 193.739 19.8945C194.36 20.3105 194.826 20.8906 195.136 21.6348C195.447 22.3789 195.602 23.2373 195.602 24.21ZM188.043 24.21C188.043 25.0479 188.163 25.7803 188.404 26.4072C188.644 27.0342 189.007 27.5234 189.494 27.875C189.986 28.2266 190.607 28.4023 191.357 28.4023C192.124 28.4023 192.754 28.2266 193.246 27.875C193.739 27.5234 194.102 27.0312 194.336 26.3984C194.571 25.7656 194.688 25.0361 194.688 24.21C194.688 23.4072 194.577 22.6924 194.354 22.0654C194.131 21.4385 193.78 20.9463 193.299 20.5889C192.819 20.2256 192.192 20.0439 191.418 20.0439C190.311 20.0439 189.47 20.4131 188.896 21.1514C188.327 21.8896 188.043 22.9092 188.043 24.21ZM208.192 19.4463V20.2285H203.464V29H202.567V19.4463H208.192ZM221.011 19.4463V28.2178H222.295V32.2344H221.425V29H214.112V32.2344H213.251V28.2178H213.892C214.431 27.4736 214.883 26.6445 215.246 25.7305C215.609 24.8164 215.884 23.832 216.072 22.7773C216.265 21.7168 216.368 20.6064 216.38 19.4463H221.011ZM220.141 20.1934H217.188C217.141 21.2422 217.024 22.2471 216.837 23.208C216.649 24.1631 216.391 25.0625 216.063 25.9062C215.735 26.7441 215.337 27.5146 214.868 28.2178H220.141V20.1934ZM231.958 19.2793C233.007 19.2793 233.792 19.543 234.314 20.0703C234.835 20.5977 235.096 21.4385 235.096 22.5928V29H234.411L234.252 27.3301H234.2C233.995 27.6875 233.746 28.0068 233.453 28.2881C233.16 28.5635 232.799 28.7803 232.371 28.9385C231.95 29.0967 231.434 29.1758 230.825 29.1758C230.209 29.1758 229.682 29.0732 229.243 28.8682C228.809 28.6631 228.472 28.3643 228.232 27.9717C227.997 27.5791 227.88 27.1016 227.88 26.5391C227.88 25.5898 228.273 24.8691 229.058 24.377C229.843 23.8789 230.971 23.5977 232.442 23.5332L234.217 23.4453V22.751C234.217 21.7725 234.024 21.0752 233.637 20.6592C233.25 20.2432 232.679 20.0352 231.923 20.0352C231.431 20.0352 230.956 20.0996 230.499 20.2285C230.048 20.3516 229.588 20.5303 229.12 20.7646L228.838 20.0264C229.295 19.8096 229.785 19.6309 230.306 19.4902C230.833 19.3496 231.384 19.2793 231.958 19.2793ZM234.208 24.1396L232.538 24.21C231.326 24.2686 230.403 24.4854 229.77 24.8604C229.137 25.2354 228.821 25.7979 228.821 26.5479C228.821 27.1514 229.008 27.6143 229.383 27.9365C229.764 28.2588 230.291 28.4199 230.965 28.4199C232.014 28.4199 232.814 28.1211 233.365 27.5234C233.921 26.9258 234.203 26.1113 234.208 25.0801V24.1396ZM243.389 19.4463V23.6299H249.409V19.4463H250.297V29H249.409V24.4121H243.389V29H242.492V19.4463H243.389Z" fill="white"/>
<path d="M6.64384 16.1504C8.30204 16.1504 9.512 16.5078 10.2737 17.2227C11.0354 17.9316 11.4163 18.9102 11.4163 20.1582C11.4163 20.7207 11.3313 21.2598 11.1614 21.7754C10.9915 22.2852 10.7132 22.7393 10.3265 23.1377C9.9456 23.5361 9.43583 23.8525 8.79716 24.0869C8.15849 24.3154 7.3704 24.4297 6.4329 24.4297H5.26396V29H2.53935V16.1504H6.64384ZM6.50322 18.3828H5.26396V22.1973H6.16044C6.67021 22.1973 7.11259 22.1299 7.48759 21.9951C7.86259 21.8604 8.15263 21.6494 8.35771 21.3623C8.56279 21.0752 8.66533 20.7061 8.66533 20.2549C8.66533 19.6221 8.48954 19.1533 8.13798 18.8486C7.78642 18.5381 7.2415 18.3828 6.50322 18.3828ZM20.6318 19.1738V29H17.9511V19.1738H20.6318ZM19.2959 15.3242C19.6943 15.3242 20.0371 15.418 20.3242 15.6055C20.6113 15.7871 20.7549 16.1299 20.7549 16.6338C20.7549 17.1318 20.6113 17.4775 20.3242 17.6709C20.0371 17.8584 19.6943 17.9521 19.2959 17.9521C18.8916 17.9521 18.5459 17.8584 18.2588 17.6709C17.9775 17.4775 17.8369 17.1318 17.8369 16.6338C17.8369 16.1299 17.9775 15.7871 18.2588 15.6055C18.5459 15.418 18.8916 15.3242 19.2959 15.3242ZM36.7907 19.1738V29H34.734L34.3737 27.7432H34.2331C34.0221 28.0771 33.7584 28.3496 33.442 28.5605C33.1256 28.7715 32.777 28.9268 32.3961 29.0264C32.0153 29.126 31.6198 29.1758 31.2096 29.1758C30.5065 29.1758 29.8942 29.0527 29.3727 28.8066C28.8512 28.5547 28.444 28.165 28.151 27.6377C27.8639 27.1104 27.7204 26.4248 27.7204 25.5811V19.1738H30.401V24.9131C30.401 25.6162 30.527 26.1465 30.779 26.5039C31.0309 26.8613 31.4323 27.04 31.9831 27.04C32.528 27.04 32.9557 26.917 33.2663 26.6709C33.5768 26.4189 33.7936 26.0527 33.9167 25.5723C34.0456 25.0859 34.11 24.4941 34.11 23.7969V19.1738H36.7907ZM50.7786 26.082C50.7786 26.75 50.6204 27.3154 50.304 27.7783C49.9935 28.2354 49.5277 28.584 48.9066 28.8242C48.2855 29.0586 47.512 29.1758 46.5863 29.1758C45.9007 29.1758 45.3118 29.1318 44.8197 29.0439C44.3333 28.9561 43.8411 28.8096 43.3431 28.6045V26.3896C43.8763 26.6299 44.4476 26.8291 45.057 26.9873C45.6722 27.1396 46.2113 27.2158 46.6742 27.2158C47.1956 27.2158 47.5677 27.1396 47.7904 26.9873C48.0189 26.8291 48.1331 26.624 48.1331 26.3721C48.1331 26.208 48.0863 26.0615 47.9925 25.9326C47.9046 25.7979 47.7113 25.6484 47.4124 25.4844C47.1136 25.3145 46.6449 25.0947 46.0062 24.8252C45.3909 24.5674 44.8841 24.3066 44.4857 24.043C44.0931 23.7793 43.8001 23.4688 43.6068 23.1113C43.4193 22.748 43.3255 22.2881 43.3255 21.7314C43.3255 20.8232 43.6771 20.1406 44.3802 19.6836C45.0892 19.2207 46.0355 18.9893 47.2191 18.9893C47.8284 18.9893 48.4085 19.0508 48.9593 19.1738C49.5159 19.2969 50.0872 19.4932 50.6732 19.7627L49.8646 21.6963C49.3783 21.4854 48.9183 21.3125 48.4847 21.1777C48.057 21.043 47.6204 20.9756 47.1751 20.9756C46.7826 20.9756 46.4867 21.0283 46.2874 21.1338C46.0882 21.2393 45.9886 21.4004 45.9886 21.6172C45.9886 21.7754 46.0384 21.916 46.138 22.0391C46.2435 22.1621 46.4427 22.2998 46.7357 22.4521C47.0345 22.5986 47.471 22.7891 48.0452 23.0234C48.6019 23.252 49.0853 23.4922 49.4954 23.7441C49.9056 23.9902 50.222 24.2979 50.4447 24.667C50.6673 25.0303 50.7786 25.502 50.7786 26.082Z" fill="white"/>
<line x1="57.5" x2="57.5" y2="44.1022" stroke="white"/>
</svg>
