<svg width="36" height="36" viewBox="0 0 36 36" fill="none" xmlns="http://www.w3.org/2000/svg">
<g clip-path="url(#clip0_2_16)">
<path d="M21.4693 9.69501H15.0527C12.0999 9.69501 9.70544 12.0895 9.70544 15.0422V21.4589C9.70544 24.4116 12.0999 26.8061 15.0527 26.8061H21.4693C24.4221 26.8061 26.8166 24.4116 26.8166 21.4589V15.0422C26.8166 12.0895 24.4221 9.69501 21.4693 9.69501ZM25.2124 21.4589C25.2124 23.5229 23.5334 25.202 21.4693 25.202H15.0527C12.9886 25.202 11.3096 23.5229 11.3096 21.4589V15.0422C11.3096 12.9782 12.9886 11.2992 15.0527 11.2992H21.4693C23.5334 11.2992 25.2124 12.9782 25.2124 15.0422V21.4589Z" fill="white"/>
<path d="M18.2611 13.9728C15.8987 13.9728 13.9833 15.8882 13.9833 18.2506C13.9833 20.613 15.8987 22.5283 18.2611 22.5283C20.6235 22.5283 22.5388 20.613 22.5388 18.2506C22.5388 15.8882 20.6235 13.9728 18.2611 13.9728ZM18.2611 20.9242C16.7874 20.9242 15.5874 19.7243 15.5874 18.2506C15.5874 16.7758 16.7874 15.5769 18.2611 15.5769C19.7347 15.5769 20.9347 16.7758 20.9347 18.2506C20.9347 19.7243 19.7347 20.9242 18.2611 20.9242Z" fill="white"/>
<path d="M22.8596 14.222C23.1744 14.222 23.4296 13.9668 23.4296 13.652C23.4296 13.3372 23.1744 13.082 22.8596 13.082C22.5448 13.082 22.2896 13.3372 22.2896 13.652C22.2896 13.9668 22.5448 14.222 22.8596 14.222Z" fill="white"/>
</g>
<circle cx="18.261" cy="18.2505" r="16.5" stroke="white" stroke-width="2"/>
<defs>
<clipPath id="clip0_2_16">
<rect width="17.1111" height="17.1111" fill="white" transform="translate(9.70544 9.69501)"/>
</clipPath>
</defs>
</svg>
