<svg width="264" height="45" viewBox="0 0 264 45" fill="none" xmlns="http://www.w3.org/2000/svg">
<path d="M6.64383 16.1504C8.30203 16.1504 9.51199 16.5078 10.2737 17.2227C11.0354 17.9316 11.4163 18.9102 11.4163 20.1582C11.4163 20.7207 11.3313 21.2598 11.1614 21.7754C10.9915 22.2852 10.7132 22.7393 10.3265 23.1377C9.94559 23.5361 9.43582 23.8525 8.79715 24.0869C8.15848 24.3154 7.37039 24.4297 6.43289 24.4297H5.26395V29H2.53934V16.1504H6.64383ZM6.50321 18.3828H5.26395V22.1973H6.16043C6.6702 22.1973 7.11258 22.1299 7.48758 21.9951C7.86258 21.8604 8.15262 21.6494 8.3577 21.3623C8.56278 21.0752 8.66532 20.7061 8.66532 20.2549C8.66532 19.6221 8.48953 19.1533 8.13797 18.8486C7.78641 18.5381 7.24149 18.3828 6.50321 18.3828ZM20.6318 19.1738V29H17.9511V19.1738H20.6318ZM19.2959 15.3242C19.6943 15.3242 20.0371 15.418 20.3242 15.6055C20.6113 15.7871 20.7549 16.1299 20.7549 16.6338C20.7549 17.1318 20.6113 17.4775 20.3242 17.6709C20.0371 17.8584 19.6943 17.9521 19.2959 17.9521C18.8916 17.9521 18.5459 17.8584 18.2588 17.6709C17.9775 17.4775 17.8369 17.1318 17.8369 16.6338C17.8369 16.1299 17.9775 15.7871 18.2588 15.6055C18.5459 15.418 18.8916 15.3242 19.2959 15.3242ZM36.7907 19.1738V29H34.734L34.3737 27.7432H34.2331C34.0221 28.0771 33.7584 28.3496 33.442 28.5605C33.1256 28.7715 32.777 28.9268 32.3961 29.0264C32.0153 29.126 31.6198 29.1758 31.2096 29.1758C30.5065 29.1758 29.8942 29.0527 29.3727 28.8066C28.8512 28.5547 28.444 28.165 28.151 27.6377C27.8639 27.1104 27.7204 26.4248 27.7204 25.5811V19.1738H30.401V24.9131C30.401 25.6162 30.527 26.1465 30.779 26.5039C31.0309 26.8613 31.4323 27.04 31.9831 27.04C32.528 27.04 32.9557 26.917 33.2663 26.6709C33.5768 26.4189 33.7936 26.0527 33.9167 25.5723C34.0456 25.0859 34.11 24.4941 34.11 23.7969V19.1738H36.7907ZM50.7786 26.082C50.7786 26.75 50.6204 27.3154 50.304 27.7783C49.9935 28.2354 49.5277 28.584 48.9066 28.8242C48.2855 29.0586 47.512 29.1758 46.5863 29.1758C45.9007 29.1758 45.3118 29.1318 44.8197 29.0439C44.3333 28.9561 43.8411 28.8096 43.3431 28.6045V26.3896C43.8763 26.6299 44.4476 26.8291 45.057 26.9873C45.6722 27.1396 46.2113 27.2158 46.6742 27.2158C47.1956 27.2158 47.5677 27.1396 47.7904 26.9873C48.0189 26.8291 48.1331 26.624 48.1331 26.3721C48.1331 26.208 48.0863 26.0615 47.9925 25.9326C47.9046 25.7979 47.7113 25.6484 47.4124 25.4844C47.1136 25.3145 46.6449 25.0947 46.0062 24.8252C45.3909 24.5674 44.8841 24.3066 44.4857 24.043C44.0931 23.7793 43.8001 23.4688 43.6068 23.1113C43.4193 22.748 43.3255 22.2881 43.3255 21.7314C43.3255 20.8232 43.6771 20.1406 44.3802 19.6836C45.0892 19.2207 46.0355 18.9893 47.2191 18.9893C47.8284 18.9893 48.4085 19.0508 48.9593 19.1738C49.5159 19.2969 50.0872 19.4932 50.6732 19.7627L49.8646 21.6963C49.3783 21.4854 48.9183 21.3125 48.4847 21.1777C48.057 21.043 47.6204 20.9756 47.1751 20.9756C46.7826 20.9756 46.4867 21.0283 46.2874 21.1338C46.0882 21.2393 45.9886 21.4004 45.9886 21.6172C45.9886 21.7754 46.0384 21.916 46.138 22.0391C46.2435 22.1621 46.4427 22.2998 46.7357 22.4521C47.0345 22.5986 47.471 22.7891 48.0452 23.0234C48.6019 23.252 49.0853 23.4922 49.4954 23.7441C49.9056 23.9902 50.222 24.2979 50.4447 24.667C50.6673 25.0303 50.7786 25.502 50.7786 26.082Z" fill="white"/>
<path d="M57.5 0V44.1022" stroke="white"/>
<path d="M87.256 17.048L82.912 30.128H80.32L77.344 20.648L74.272 30.128H71.656L67.408 17.048H70.144L73.048 26.456L76.096 17.048H78.712L81.616 26.456L84.64 17.048H87.256ZM99.6016 24.488H91.5136C91.5616 25.64 91.8736 26.536 92.4496 27.176C93.0416 27.864 93.8576 28.208 94.8976 28.208C96.3376 28.208 97.6096 27.896 98.7136 27.272V29.696C97.4336 30.176 96.1376 30.416 94.8256 30.416C92.7616 30.416 91.2256 29.76 90.2176 28.448C89.3376 27.28 88.8976 25.648 88.8976 23.552C88.8976 21.536 89.3856 19.896 90.3616 18.632C91.3376 17.368 92.6496 16.736 94.2976 16.736C96.1376 16.736 97.5136 17.392 98.4256 18.704C99.2096 19.824 99.6016 21.304 99.6016 23.144V24.488ZM96.9856 22.208C96.9856 21.312 96.7536 20.56 96.2896 19.952C95.8096 19.312 95.1776 18.992 94.3936 18.992C93.5936 18.992 92.9136 19.32 92.3536 19.976C91.7936 20.632 91.5136 21.376 91.5136 22.208H96.9856ZM108.264 18.752C107.256 18.752 106.472 19.248 105.912 20.24C105.448 21.088 105.216 22.144 105.216 23.408C105.216 24.64 105.456 25.688 105.936 26.552C106.48 27.528 107.256 28.016 108.264 28.016C110.328 28.016 111.36 26.496 111.36 23.456C111.36 20.32 110.328 18.752 108.264 18.752ZM105.216 10.928V17.984C106.192 16.96 107.296 16.448 108.528 16.448C110.368 16.448 111.752 17.128 112.68 18.488C113.512 19.672 113.928 21.328 113.928 23.456C113.928 25.52 113.48 27.168 112.584 28.4C111.592 29.696 110.24 30.344 108.528 30.344C107.072 30.344 105.968 29.872 105.216 28.928V30.032H102.792V10.928H105.216ZM123.826 19.64C122.77 19.192 121.77 18.968 120.826 18.968C119.498 18.968 118.834 19.488 118.834 20.528C118.834 20.992 119.338 21.472 120.346 21.968C121.802 22.688 122.738 23.216 123.154 23.552C124.146 24.368 124.642 25.376 124.642 26.576C124.642 27.92 124.106 28.936 123.034 29.624C122.186 30.152 121.17 30.416 119.986 30.416C118.546 30.416 117.298 30.2 116.242 29.768L116.482 27.296C117.65 27.872 118.794 28.16 119.914 28.16C120.554 28.16 121.082 27.992 121.498 27.656C121.882 27.352 122.074 26.952 122.074 26.456C122.074 25.816 121.586 25.224 120.61 24.68C119.698 24.184 119.018 23.808 118.57 23.552C118.122 23.296 117.89 23.16 117.874 23.144C116.898 22.408 116.41 21.504 116.41 20.432C116.41 19.12 116.898 18.144 117.874 17.504C118.658 16.992 119.61 16.736 120.73 16.736C121.978 16.736 123.098 16.952 124.09 17.384L123.826 19.64ZM129.966 30.128H127.398V16.688H129.966V30.128ZM129.966 14.384H127.398V11.384H129.966V14.384ZM139.969 30.032C139.361 30.288 138.673 30.416 137.905 30.416C136.385 30.416 135.401 30.008 134.953 29.192C134.617 28.648 134.449 27.6 134.449 26.048V19.256H132.385V16.88H134.449V14.024L137.041 13.184V16.88H139.585V19.256H137.041V26.72C137.041 27.648 137.465 28.112 138.313 28.112C138.873 28.112 139.361 28.008 139.777 27.8L139.969 30.032ZM152.359 24.488H144.271C144.319 25.64 144.631 26.536 145.207 27.176C145.799 27.864 146.615 28.208 147.655 28.208C149.095 28.208 150.367 27.896 151.471 27.272V29.696C150.191 30.176 148.895 30.416 147.583 30.416C145.519 30.416 143.983 29.76 142.975 28.448C142.095 27.28 141.655 25.648 141.655 23.552C141.655 21.536 142.143 19.896 143.119 18.632C144.095 17.368 145.407 16.736 147.055 16.736C148.895 16.736 150.271 17.392 151.183 18.704C151.967 19.824 152.359 21.304 152.359 23.144V24.488ZM149.743 22.208C149.743 21.312 149.511 20.56 149.047 19.952C148.567 19.312 147.935 18.992 147.151 18.992C146.351 18.992 145.671 19.32 145.111 19.976C144.551 20.632 144.271 21.376 144.271 22.208H149.743Z" fill="white"/>
</svg>
