<svg width="58" height="45" viewBox="0 0 58 45" fill="none" xmlns="http://www.w3.org/2000/svg">
<path d="M6.64384 16.1504C8.30204 16.1504 9.512 16.5078 10.2737 17.2227C11.0354 17.9316 11.4163 18.9102 11.4163 20.1582C11.4163 20.7207 11.3313 21.2598 11.1614 21.7754C10.9915 22.2852 10.7132 22.7393 10.3265 23.1377C9.9456 23.5361 9.43583 23.8525 8.79716 24.0869C8.15849 24.3154 7.3704 24.4297 6.4329 24.4297H5.26396V29H2.53935V16.1504H6.64384ZM6.50322 18.3828H5.26396V22.1973H6.16044C6.67021 22.1973 7.11259 22.1299 7.48759 21.9951C7.86259 21.8604 8.15263 21.6494 8.35771 21.3623C8.56279 21.0752 8.66533 20.7061 8.66533 20.2549C8.66533 19.6221 8.48954 19.1533 8.13798 18.8486C7.78642 18.5381 7.2415 18.3828 6.50322 18.3828ZM20.6318 19.1738V29H17.9511V19.1738H20.6318ZM19.2959 15.3242C19.6943 15.3242 20.0371 15.418 20.3242 15.6055C20.6113 15.7871 20.7549 16.1299 20.7549 16.6338C20.7549 17.1318 20.6113 17.4775 20.3242 17.6709C20.0371 17.8584 19.6943 17.9521 19.2959 17.9521C18.8916 17.9521 18.5459 17.8584 18.2588 17.6709C17.9775 17.4775 17.8369 17.1318 17.8369 16.6338C17.8369 16.1299 17.9775 15.7871 18.2588 15.6055C18.5459 15.418 18.8916 15.3242 19.2959 15.3242ZM36.7907 19.1738V29H34.734L34.3737 27.7432H34.2331C34.0221 28.0771 33.7584 28.3496 33.442 28.5605C33.1256 28.7715 32.777 28.9268 32.3961 29.0264C32.0153 29.126 31.6198 29.1758 31.2096 29.1758C30.5065 29.1758 29.8942 29.0527 29.3727 28.8066C28.8512 28.5547 28.444 28.165 28.151 27.6377C27.8639 27.1104 27.7204 26.4248 27.7204 25.5811V19.1738H30.401V24.9131C30.401 25.6162 30.527 26.1465 30.779 26.5039C31.0309 26.8613 31.4323 27.04 31.9831 27.04C32.528 27.04 32.9557 26.917 33.2663 26.6709C33.5768 26.4189 33.7936 26.0527 33.9167 25.5723C34.0456 25.0859 34.11 24.4941 34.11 23.7969V19.1738H36.7907ZM50.7786 26.082C50.7786 26.75 50.6204 27.3154 50.304 27.7783C49.9935 28.2354 49.5277 28.584 48.9066 28.8242C48.2855 29.0586 47.512 29.1758 46.5863 29.1758C45.9007 29.1758 45.3118 29.1318 44.8197 29.0439C44.3333 28.9561 43.8411 28.8096 43.3431 28.6045V26.3896C43.8763 26.6299 44.4476 26.8291 45.057 26.9873C45.6722 27.1396 46.2113 27.2158 46.6742 27.2158C47.1956 27.2158 47.5677 27.1396 47.7904 26.9873C48.0189 26.8291 48.1331 26.624 48.1331 26.3721C48.1331 26.208 48.0863 26.0615 47.9925 25.9326C47.9046 25.7979 47.7113 25.6484 47.4124 25.4844C47.1136 25.3145 46.6449 25.0947 46.0062 24.8252C45.3909 24.5674 44.8841 24.3066 44.4857 24.043C44.0931 23.7793 43.8001 23.4688 43.6068 23.1113C43.4193 22.748 43.3255 22.2881 43.3255 21.7314C43.3255 20.8232 43.6771 20.1406 44.3802 19.6836C45.0892 19.2207 46.0355 18.9893 47.2191 18.9893C47.8284 18.9893 48.4085 19.0508 48.9593 19.1738C49.5159 19.2969 50.0872 19.4932 50.6732 19.7627L49.8646 21.6963C49.3783 21.4854 48.9183 21.3125 48.4847 21.1777C48.057 21.043 47.6204 20.9756 47.1751 20.9756C46.7826 20.9756 46.4867 21.0283 46.2874 21.1338C46.0882 21.2393 45.9886 21.4004 45.9886 21.6172C45.9886 21.7754 46.0384 21.916 46.138 22.0391C46.2435 22.1621 46.4427 22.2998 46.7357 22.4521C47.0345 22.5986 47.471 22.7891 48.0452 23.0234C48.6019 23.252 49.0853 23.4922 49.4954 23.7441C49.9056 23.9902 50.222 24.2979 50.4447 24.667C50.6673 25.0303 50.7786 25.502 50.7786 26.082Z" fill="white"/>
<line x1="57.5" x2="57.5" y2="44.1022" stroke="white"/>
</svg>
