<svg width="264" height="45" viewBox="0 0 264 45" fill="none" xmlns="http://www.w3.org/2000/svg">
<path d="M6.64384 16.1504C8.30204 16.1504 9.512 16.5078 10.2737 17.2227C11.0354 17.9316 11.4163 18.9102 11.4163 20.1582C11.4163 20.7207 11.3313 21.2598 11.1614 21.7754C10.9915 22.2852 10.7132 22.7393 10.3265 23.1377C9.9456 23.5361 9.43583 23.8525 8.79716 24.0869C8.15849 24.3154 7.3704 24.4297 6.4329 24.4297H5.26396V29H2.53935V16.1504H6.64384ZM6.50322 18.3828H5.26396V22.1973H6.16044C6.67021 22.1973 7.11259 22.1299 7.48759 21.9951C7.86259 21.8604 8.15263 21.6494 8.35771 21.3623C8.56279 21.0752 8.66533 20.7061 8.66533 20.2549C8.66533 19.6221 8.48954 19.1533 8.13798 18.8486C7.78642 18.5381 7.2415 18.3828 6.50322 18.3828ZM20.6318 19.1738V29H17.9511V19.1738H20.6318ZM19.2959 15.3242C19.6943 15.3242 20.0371 15.418 20.3242 15.6055C20.6113 15.7871 20.7549 16.1299 20.7549 16.6338C20.7549 17.1318 20.6113 17.4775 20.3242 17.6709C20.0371 17.8584 19.6943 17.9521 19.2959 17.9521C18.8916 17.9521 18.5459 17.8584 18.2588 17.6709C17.9775 17.4775 17.8369 17.1318 17.8369 16.6338C17.8369 16.1299 17.9775 15.7871 18.2588 15.6055C18.5459 15.418 18.8916 15.3242 19.2959 15.3242ZM36.7907 19.1738V29H34.734L34.3737 27.7432H34.2331C34.0221 28.0771 33.7584 28.3496 33.442 28.5605C33.1256 28.7715 32.777 28.9268 32.3961 29.0264C32.0153 29.126 31.6198 29.1758 31.2096 29.1758C30.5065 29.1758 29.8942 29.0527 29.3727 28.8066C28.8512 28.5547 28.444 28.165 28.151 27.6377C27.8639 27.1104 27.7204 26.4248 27.7204 25.5811V19.1738H30.401V24.9131C30.401 25.6162 30.527 26.1465 30.779 26.5039C31.0309 26.8613 31.4323 27.04 31.9831 27.04C32.528 27.04 32.9557 26.917 33.2663 26.6709C33.5768 26.4189 33.7936 26.0527 33.9167 25.5723C34.0456 25.0859 34.11 24.4941 34.11 23.7969V19.1738H36.7907ZM50.7786 26.082C50.7786 26.75 50.6204 27.3154 50.304 27.7783C49.9935 28.2354 49.5277 28.584 48.9066 28.8242C48.2855 29.0586 47.512 29.1758 46.5863 29.1758C45.9007 29.1758 45.3118 29.1318 44.8197 29.0439C44.3333 28.9561 43.8411 28.8096 43.3431 28.6045V26.3896C43.8763 26.6299 44.4476 26.8291 45.057 26.9873C45.6722 27.1396 46.2113 27.2158 46.6742 27.2158C47.1956 27.2158 47.5677 27.1396 47.7904 26.9873C48.0189 26.8291 48.1331 26.624 48.1331 26.3721C48.1331 26.208 48.0863 26.0615 47.9925 25.9326C47.9046 25.7979 47.7113 25.6484 47.4124 25.4844C47.1136 25.3145 46.6449 25.0947 46.0062 24.8252C45.3909 24.5674 44.8841 24.3066 44.4857 24.043C44.0931 23.7793 43.8001 23.4688 43.6068 23.1113C43.4193 22.748 43.3255 22.2881 43.3255 21.7314C43.3255 20.8232 43.6771 20.1406 44.3802 19.6836C45.0892 19.2207 46.0355 18.9893 47.2191 18.9893C47.8284 18.9893 48.4085 19.0508 48.9593 19.1738C49.5159 19.2969 50.0872 19.4932 50.6732 19.7627L49.8646 21.6963C49.3783 21.4854 48.9183 21.3125 48.4847 21.1777C48.057 21.043 47.6204 20.9756 47.1751 20.9756C46.7826 20.9756 46.4867 21.0283 46.2874 21.1338C46.0882 21.2393 45.9886 21.4004 45.9886 21.6172C45.9886 21.7754 46.0384 21.916 46.138 22.0391C46.2435 22.1621 46.4427 22.2998 46.7357 22.4521C47.0345 22.5986 47.471 22.7891 48.0452 23.0234C48.6019 23.252 49.0853 23.4922 49.4954 23.7441C49.9056 23.9902 50.222 24.2979 50.4447 24.667C50.6673 25.0303 50.7786 25.502 50.7786 26.082Z" fill="white"/>
<line x1="57.5" x2="57.5" y2="44.1022" stroke="white"/>
<path d="M72.0497 29V28.2354L73.4823 28.1211V17.0908L72.0497 16.9766V16.2031H81.1904V18.8926H80.2499L80.1884 17.0908H74.581V21.7842H77.7802C78.6825 21.7842 79.4472 21.9336 80.0741 22.2324C80.7011 22.5254 81.1786 22.9414 81.5068 23.4805C81.8407 24.0137 82.0077 24.6465 82.0077 25.3789C82.0077 26.1113 81.8407 26.75 81.5068 27.2949C81.1786 27.834 80.6982 28.2529 80.0654 28.5518C79.4384 28.8506 78.6767 29 77.7802 29H72.0497ZM74.581 28.1211H77.7802C78.8407 28.1211 79.6318 27.8633 80.1532 27.3477C80.6806 26.8262 80.9443 26.1641 80.9443 25.3613C80.9443 24.5879 80.6806 23.9463 80.1532 23.4365C79.6318 22.9209 78.8407 22.6631 77.7802 22.6631H74.581V28.1211ZM92.3922 29.1846C91.5367 29.1846 90.7926 28.9824 90.1598 28.5781C89.5328 28.168 89.0436 27.6025 88.692 26.8818C88.3463 26.1553 88.1734 25.3262 88.1734 24.3945V24.1045C88.1734 23.1729 88.3463 22.3467 88.692 21.626C89.0436 20.9053 89.5328 20.3398 90.1598 19.9297C90.7926 19.5195 91.5309 19.3145 92.3746 19.3145C93.2242 19.3145 93.9625 19.5195 94.5895 19.9297C95.2223 20.3398 95.7115 20.9053 96.0572 21.626C96.4088 22.3408 96.5846 23.167 96.5846 24.1045V24.3945C96.5846 25.332 96.4088 26.1611 96.0572 26.8818C95.7115 27.6025 95.2223 28.168 94.5895 28.5781C93.9625 28.9824 93.2301 29.1846 92.3922 29.1846ZM92.3922 28.3057C93.0426 28.3057 93.6021 28.1328 94.0709 27.7871C94.5396 27.4414 94.9 26.9727 95.152 26.3809C95.4039 25.7891 95.5299 25.127 95.5299 24.3945V24.1045C95.5299 23.3779 95.4039 22.7188 95.152 22.127C94.9 21.5352 94.5367 21.0664 94.0621 20.7207C93.5934 20.375 93.0309 20.2021 92.3746 20.2021C91.7184 20.2021 91.1529 20.375 90.6783 20.7207C90.2096 21.0664 89.8492 21.5352 89.5973 22.127C89.3512 22.7188 89.2281 23.3779 89.2281 24.1045V24.3945C89.2281 25.1328 89.3512 25.7979 89.5973 26.3896C89.8492 26.9756 90.2096 27.4414 90.6783 27.7871C91.1529 28.1328 91.7242 28.3057 92.3922 28.3057ZM102.443 29V28.2354L103.875 28.1211V20.3779L102.443 20.2637V19.4902H109.869V21.5293H109.096L109.043 20.3867H104.93V28.1211L106.363 28.2354V29H102.443ZM115.543 31.7949L115.464 28.1211H116.149C116.407 27.793 116.636 27.4736 116.835 27.1631C117.034 26.8467 117.204 26.498 117.345 26.1172C117.491 25.7363 117.608 25.2881 117.696 24.7725C117.79 24.2568 117.857 23.6387 117.898 22.918L118.021 20.3691L116.624 20.2637V19.4902H123.673H125.105V20.2637L123.673 20.3779V28.1211H124.666L124.587 31.7949H123.611V29H116.466V31.7949H115.543ZM117.389 28.1211H122.618V20.457H119.067L118.953 22.918C118.883 24.166 118.71 25.209 118.435 26.0469C118.165 26.8848 117.816 27.5762 117.389 28.1211ZM134.128 29.1846C133.225 29.1846 132.519 28.9443 132.009 28.4639C131.5 27.9834 131.245 27.333 131.245 26.5127C131.245 25.9268 131.415 25.4141 131.755 24.9746C132.094 24.5293 132.575 24.1836 133.196 23.9375C133.823 23.6914 134.564 23.5684 135.42 23.5684H137.388V22.4785C137.388 21.793 137.183 21.2422 136.773 20.8262C136.369 20.4043 135.756 20.1934 134.936 20.1934C134.473 20.1934 134.057 20.2695 133.688 20.4219C133.325 20.5684 133.008 20.7559 132.739 20.9844L132.651 22.4346H131.781V20.4482C132.191 20.0967 132.657 19.8213 133.178 19.6221C133.7 19.417 134.292 19.3145 134.954 19.3145C136.073 19.3145 136.934 19.5957 137.538 20.1582C138.141 20.7207 138.443 21.5 138.443 22.4961V27.084C138.443 27.2715 138.449 27.459 138.461 27.6465C138.472 27.8281 138.493 28.0098 138.522 28.1914L139.656 28.2354V29H137.582C137.511 28.6543 137.462 28.376 137.432 28.165C137.409 27.9541 137.394 27.7168 137.388 27.4531C137.043 27.9629 136.586 28.3789 136.017 28.7012C135.449 29.0234 134.819 29.1846 134.128 29.1846ZM134.251 28.2617C134.901 28.2617 135.516 28.0918 136.096 27.752C136.682 27.4062 137.113 26.9492 137.388 26.3809V24.377H135.411C134.438 24.377 133.676 24.5879 133.126 25.0098C132.575 25.4258 132.299 25.9385 132.299 26.5479C132.299 27.0576 132.475 27.4707 132.827 27.7871C133.178 28.1035 133.653 28.2617 134.251 28.2617ZM145.488 29V28.2354L146.92 28.1211V20.3779L145.488 20.2637V19.4902H149.408V20.2637L147.975 20.3779V23.7529H153.09V20.3779L151.658 20.2637V19.4902H153.09H154.154H155.586V20.2637L154.154 20.3779V28.1211L155.586 28.2354V29H151.658V28.2354L153.09 28.1211V24.6318H147.975V28.1211L149.408 28.2354V29H145.488ZM170.405 29V28.2354L171.838 28.1211V17.0908L170.405 16.9766V16.2031H182.657V16.9766L181.224 17.0908V28.1211L182.657 28.2354V29H178.737V28.2354L180.17 28.1211V17.0908H172.892V28.1211L174.325 28.2354V29H170.405ZM191.468 29.1846C190.566 29.1846 189.86 28.9443 189.35 28.4639C188.84 27.9834 188.585 27.333 188.585 26.5127C188.585 25.9268 188.755 25.4141 189.095 24.9746C189.435 24.5293 189.915 24.1836 190.536 23.9375C191.163 23.6914 191.905 23.5684 192.76 23.5684H194.729V22.4785C194.729 21.793 194.524 21.2422 194.114 20.8262C193.709 20.4043 193.097 20.1934 192.277 20.1934C191.814 20.1934 191.398 20.2695 191.029 20.4219C190.665 20.5684 190.349 20.7559 190.079 20.9844L189.992 22.4346H189.121V20.4482C189.532 20.0967 189.997 19.8213 190.519 19.6221C191.04 19.417 191.632 19.3145 192.294 19.3145C193.413 19.3145 194.275 19.5957 194.878 20.1582C195.482 20.7207 195.784 21.5 195.784 22.4961V27.084C195.784 27.2715 195.789 27.459 195.801 27.6465C195.813 27.8281 195.833 28.0098 195.863 28.1914L196.996 28.2354V29H194.922C194.852 28.6543 194.802 28.376 194.773 28.165C194.749 27.9541 194.735 27.7168 194.729 27.4531C194.383 27.9629 193.926 28.3789 193.358 28.7012C192.789 29.0234 192.16 29.1846 191.468 29.1846ZM191.591 28.2617C192.242 28.2617 192.857 28.0918 193.437 27.752C194.023 27.4062 194.453 26.9492 194.729 26.3809V24.377H192.751C191.779 24.377 191.017 24.5879 190.466 25.0098C189.915 25.4258 189.64 25.9385 189.64 26.5479C189.64 27.0576 189.816 27.4707 190.167 27.7871C190.519 28.1035 190.994 28.2617 191.591 28.2617ZM202.828 29V28.2354L204.261 28.1211V20.3779L202.828 20.2637V19.4902H204.261H207.75C208.939 19.4902 209.859 19.7012 210.51 20.123C211.166 20.5449 211.494 21.1777 211.494 22.0215C211.494 22.5137 211.342 22.9473 211.037 23.3223C210.738 23.6914 210.316 23.9551 209.772 24.1133C210.398 24.2188 210.905 24.4824 211.292 24.9043C211.685 25.3262 211.881 25.8125 211.881 26.3633C211.881 27.2246 211.564 27.8809 210.932 28.332C210.305 28.7773 209.446 29 208.356 29H202.828ZM205.315 28.1299H208.356C209.142 28.1299 209.748 27.9775 210.176 27.6729C210.609 27.3623 210.826 26.9199 210.826 26.3457C210.826 25.8184 210.606 25.3994 210.167 25.0889C209.733 24.7725 209.13 24.6143 208.356 24.6143H205.315V28.1299ZM205.315 23.7441H207.847C208.696 23.7441 209.341 23.6035 209.78 23.3223C210.22 23.0352 210.439 22.6104 210.439 22.0479C210.439 20.9287 209.543 20.3691 207.75 20.3691H205.315V23.7441ZM217.888 29L217.897 28.0684L218.231 28.0596C218.665 28.0596 219.016 27.9219 219.286 27.6465C219.555 27.3711 219.752 26.9141 219.875 26.2754C220.004 25.6309 220.068 24.7695 220.068 23.6914V20.3779L218.635 20.2637V19.4902H226.212H227.644V20.2637L226.212 20.3779V28.1211L227.644 28.2354V29H223.716V28.2354L225.148 28.1211V20.3867H221.123V23.6914C221.123 25.5605 220.906 26.9141 220.472 27.752C220.039 28.584 219.303 29 218.266 29H217.888ZM242.898 29.1846C242.083 29.1846 241.366 28.9971 240.745 28.6221C240.129 28.2412 239.643 27.7168 239.286 27.0488C238.928 26.375 238.729 25.5957 238.688 24.7109H236.183V28.1211L237.616 28.2354V29H233.696V28.2354L235.128 28.1211V20.3779L233.696 20.2637V19.4902H236.183V23.832H238.697C238.732 22.9355 238.928 22.1504 239.286 21.4766C239.643 20.7969 240.126 20.2666 240.736 19.8857C241.351 19.5049 242.066 19.3145 242.88 19.3145C243.73 19.3145 244.468 19.5195 245.095 19.9297C245.728 20.3398 246.217 20.9053 246.563 21.626C246.914 22.3408 247.09 23.167 247.09 24.1045V24.3945C247.09 25.332 246.914 26.1611 246.563 26.8818C246.217 27.6025 245.731 28.168 245.104 28.5781C244.477 28.9824 243.742 29.1846 242.898 29.1846ZM242.898 28.3057C243.548 28.3057 244.108 28.1328 244.577 27.7871C245.051 27.4414 245.412 26.9756 245.658 26.3896C245.91 25.7979 246.036 25.1328 246.036 24.3945V24.1045C246.036 23.3779 245.91 22.7217 245.658 22.1357C245.406 21.5439 245.042 21.0752 244.568 20.7295C244.099 20.3779 243.537 20.2021 242.88 20.2021C242.224 20.2021 241.659 20.3779 241.184 20.7295C240.715 21.0752 240.355 21.5439 240.103 22.1357C239.857 22.7217 239.734 23.3779 239.734 24.1045V24.3945C239.734 25.1328 239.86 25.7979 240.112 26.3896C240.364 26.9814 240.724 27.4502 241.193 27.7959C241.667 28.1357 242.236 28.3057 242.898 28.3057ZM253.423 29V28.2354L254.856 28.1211V20.3779L253.423 20.2637V19.4902H257.352V20.2637L255.919 20.3779V23.709H257.325L259.646 20.7471C260.032 20.2373 260.381 19.8799 260.691 19.6748C261.008 19.4639 261.357 19.3584 261.737 19.3584C261.925 19.3584 262.095 19.3848 262.247 19.4375C262.405 19.4902 262.566 19.5693 262.731 19.6748L262.502 20.4395C262.344 20.3926 262.232 20.3604 262.168 20.3428C262.104 20.3252 262.016 20.3164 261.904 20.3164C261.641 20.3164 261.403 20.3896 261.192 20.5361C260.982 20.6826 260.738 20.9287 260.463 21.2744L258.248 24.0869L261.86 28.1299L263.082 28.2354V29H261.219L257.369 24.6318H255.919V28.1211L257.352 28.2354V29H253.423Z" fill="white"/>
</svg>
