<svg width="246" height="45" viewBox="0 0 246 45" fill="none" xmlns="http://www.w3.org/2000/svg">
<path d="M66.2311 29.806V16.9564H75.4509V29.806H74.5632V17.7738H67.1364V29.806H66.2311ZM86.5296 20.0853C87.5785 20.0853 88.3636 20.349 88.8851 20.8763C89.4066 21.4037 89.6673 22.2445 89.6673 23.3988V29.806H88.9818L88.8236 28.1361H88.7709C88.5658 28.4935 88.3167 28.8129 88.0238 29.0941C87.7308 29.3695 87.3705 29.5863 86.9427 29.7445C86.5209 29.9027 86.0052 29.9818 85.3959 29.9818C84.7806 29.9818 84.2533 29.8793 83.8138 29.6742C83.3802 29.4691 83.0433 29.1703 82.8031 28.7777C82.5687 28.3851 82.4515 27.9076 82.4515 27.3451C82.4515 26.3959 82.8441 25.6752 83.6292 25.183C84.4144 24.6849 85.5423 24.4037 87.013 24.3392L88.7884 24.2513V23.557C88.7884 22.5785 88.5951 21.8812 88.2084 21.4652C87.8216 21.0492 87.2503 20.8412 86.4945 20.8412C86.0023 20.8412 85.5277 20.9056 85.0707 21.0345C84.6195 21.1576 84.1595 21.3363 83.6908 21.5707L83.4095 20.8324C83.8666 20.6156 84.3558 20.4369 84.8773 20.2963C85.4046 20.1556 85.9554 20.0853 86.5296 20.0853ZM88.7796 24.9457L87.1097 25.016C85.8968 25.0746 84.974 25.2914 84.3412 25.6664C83.7084 26.0414 83.3919 26.6039 83.3919 27.3539C83.3919 27.9574 83.5794 28.4203 83.9544 28.7426C84.3353 29.0648 84.8626 29.226 85.5365 29.226C86.5853 29.226 87.3851 28.9271 87.9359 28.3295C88.4925 27.7318 88.7738 26.9174 88.7796 25.8861V24.9457ZM104.218 22.5814C104.218 23.1849 104.06 23.6595 103.743 24.0052C103.433 24.351 103.02 24.5853 102.504 24.7084V24.7611C103.131 24.8549 103.635 25.0922 104.016 25.473C104.402 25.848 104.596 26.3871 104.596 27.0902C104.596 27.6469 104.473 28.1273 104.227 28.5316C103.98 28.9359 103.603 29.2494 103.093 29.472C102.589 29.6947 101.941 29.806 101.15 29.806H97.0635V20.2523H101.045C101.748 20.2523 102.334 20.3431 102.803 20.5248C103.272 20.7006 103.623 20.9613 103.857 21.307C104.098 21.6469 104.218 22.0717 104.218 22.5814ZM103.673 27.0902C103.673 26.4047 103.441 25.9125 102.979 25.6136C102.516 25.3148 101.836 25.1654 100.939 25.1654H97.96V29.0502H100.992C101.889 29.0502 102.56 28.892 103.005 28.5756C103.45 28.2533 103.673 27.7582 103.673 27.0902ZM103.313 22.6517C103.313 22.1478 103.134 21.7523 102.776 21.4652C102.419 21.1722 101.813 21.0258 100.957 21.0258H97.96V24.3832H100.869C101.713 24.3832 102.331 24.2396 102.724 23.9525C103.116 23.6595 103.313 23.226 103.313 22.6517ZM118.197 29.806H117.309V21.0258H113.969C113.858 22.5316 113.726 23.8441 113.574 24.9633C113.422 26.0765 113.225 26.9994 112.985 27.7318C112.745 28.4584 112.446 29.0004 112.089 29.3578C111.731 29.7152 111.289 29.8939 110.761 29.8939C110.609 29.8939 110.474 29.8851 110.357 29.8676C110.24 29.8558 110.146 29.8383 110.076 29.8148V29.0941C110.146 29.1117 110.225 29.1263 110.313 29.1381C110.401 29.1439 110.509 29.1469 110.638 29.1469C110.937 29.1469 111.204 29.0355 111.438 28.8129C111.673 28.5844 111.881 28.2386 112.062 27.7758C112.25 27.3129 112.411 26.7299 112.546 26.0267C112.68 25.3177 112.798 24.4828 112.897 23.5219C113.003 22.5609 113.096 21.4711 113.178 20.2523H118.197V29.806ZM137.441 25.016C137.441 25.9828 137.294 26.8412 137.001 27.5912C136.714 28.3412 136.281 28.9271 135.701 29.349C135.12 29.7709 134.391 29.9818 133.512 29.9818C132.686 29.9818 131.989 29.7855 131.42 29.3929C130.858 28.9945 130.427 28.4379 130.128 27.723C129.829 27.0082 129.668 26.1703 129.645 25.2094H126.578V29.806H125.69V20.2523H126.578V24.4271H129.654C129.706 23.6185 129.879 22.8861 130.172 22.2299C130.471 21.5677 130.902 21.0433 131.464 20.6566C132.027 20.264 132.727 20.0677 133.565 20.0677C134.455 20.0677 135.185 20.2845 135.753 20.7181C136.328 21.1517 136.752 21.7435 137.028 22.4935C137.303 23.2377 137.441 24.0785 137.441 25.016ZM130.559 25.016C130.559 25.8129 130.659 26.5306 130.858 27.1693C131.057 27.8021 131.373 28.3002 131.807 28.6635C132.246 29.0267 132.821 29.2084 133.53 29.2084C134.227 29.2084 134.795 29.0326 135.235 28.681C135.68 28.3295 136.005 27.8373 136.21 27.2045C136.421 26.5717 136.527 25.8422 136.527 25.016C136.527 24.2074 136.424 23.4896 136.219 22.8627C136.014 22.2357 135.692 21.7435 135.252 21.3861C134.819 21.0287 134.25 20.85 133.547 20.85C132.844 20.85 132.273 21.0287 131.833 21.3861C131.394 21.7435 131.072 22.2386 130.867 22.8715C130.662 23.4984 130.559 24.2133 130.559 25.016ZM149.592 20.2523H150.62L146.296 24.8929L150.884 29.806H149.785L145.285 24.9633V29.806H144.389V20.2523H145.285V24.8929L149.592 20.2523ZM166.186 29.806V16.9564H173.367V17.7738H167.091V22.599H169.491C170.51 22.599 171.348 22.725 172.004 22.9769C172.661 23.223 173.147 23.6039 173.463 24.1195C173.786 24.6351 173.947 25.2972 173.947 26.1058C173.947 27.3129 173.595 28.2328 172.892 28.8656C172.195 29.4926 171.131 29.806 169.702 29.806H166.186ZM167.091 29.0062H169.57C170.765 29.0062 171.635 28.7748 172.18 28.3119C172.731 27.8431 173.006 27.1078 173.006 26.1058C173.006 25.4086 172.869 24.8636 172.593 24.4711C172.318 24.0785 171.908 23.8031 171.363 23.6449C170.824 23.4867 170.156 23.4076 169.359 23.4076H167.091V29.0062ZM188.928 25.016C188.928 25.7543 188.837 26.4281 188.655 27.0375C188.474 27.641 188.204 28.1625 187.847 28.6019C187.489 29.0414 187.044 29.3812 186.511 29.6215C185.984 29.8617 185.368 29.9818 184.665 29.9818C183.997 29.9818 183.402 29.8646 182.881 29.6302C182.359 29.39 181.917 29.0502 181.554 28.6107C181.196 28.1713 180.924 27.6498 180.736 27.0463C180.549 26.4369 180.455 25.7601 180.455 25.016C180.455 23.9906 180.625 23.1088 180.965 22.3705C181.311 21.6263 181.803 21.058 182.442 20.6654C183.086 20.267 183.857 20.0677 184.753 20.0677C185.679 20.0677 186.449 20.2787 187.065 20.7006C187.686 21.1166 188.151 21.6967 188.462 22.4408C188.773 23.1849 188.928 24.0433 188.928 25.016ZM181.369 25.016C181.369 25.8539 181.489 26.5863 181.73 27.2133C181.97 27.8402 182.333 28.3295 182.819 28.681C183.312 29.0326 183.933 29.2084 184.683 29.2084C185.45 29.2084 186.08 29.0326 186.572 28.681C187.065 28.3295 187.428 27.8373 187.662 27.2045C187.897 26.5717 188.014 25.8422 188.014 25.016C188.014 24.2133 187.902 23.4984 187.68 22.8715C187.457 22.2445 187.106 21.7523 186.625 21.3949C186.145 21.0316 185.518 20.85 184.744 20.85C183.637 20.85 182.796 21.2191 182.222 21.9574C181.653 22.6957 181.369 23.7152 181.369 25.016ZM201.518 20.2523V21.0345H196.79V29.806H195.893V20.2523H201.518ZM214.337 20.2523V29.0238H215.621V33.0404H214.75V29.806H207.438V33.0404H206.577V29.0238H207.218C207.757 28.2797 208.208 27.4506 208.572 26.5365C208.935 25.6224 209.21 24.6381 209.398 23.5834C209.591 22.5228 209.694 21.4125 209.706 20.2523H214.337ZM213.467 20.9994H210.514C210.467 22.0482 210.35 23.0531 210.163 24.014C209.975 24.9691 209.717 25.8685 209.389 26.7123C209.061 27.5502 208.663 28.3207 208.194 29.0238H213.467V20.9994ZM225.284 20.0853C226.333 20.0853 227.118 20.349 227.64 20.8763C228.161 21.4037 228.422 22.2445 228.422 23.3988V29.806H227.736L227.578 28.1361H227.526C227.32 28.4935 227.071 28.8129 226.778 29.0941C226.486 29.3695 226.125 29.5863 225.697 29.7445C225.276 29.9027 224.76 29.9818 224.151 29.9818C223.535 29.9818 223.008 29.8793 222.569 29.6742C222.135 29.4691 221.798 29.1703 221.558 28.7777C221.323 28.3851 221.206 27.9076 221.206 27.3451C221.206 26.3959 221.599 25.6752 222.384 25.183C223.169 24.6849 224.297 24.4037 225.768 24.3392L227.543 24.2513V23.557C227.543 22.5785 227.35 21.8812 226.963 21.4652C226.576 21.0492 226.005 20.8412 225.249 20.8412C224.757 20.8412 224.282 20.9056 223.825 21.0345C223.374 21.1576 222.914 21.3363 222.445 21.5707L222.164 20.8324C222.621 20.6156 223.111 20.4369 223.632 20.2963C224.159 20.1556 224.71 20.0853 225.284 20.0853ZM227.534 24.9457L225.864 25.016C224.652 25.0746 223.729 25.2914 223.096 25.6664C222.463 26.0414 222.147 26.6039 222.147 27.3539C222.147 27.9574 222.334 28.4203 222.709 28.7426C223.09 29.0648 223.617 29.226 224.291 29.226C225.34 29.226 226.14 28.9271 226.691 28.3295C227.247 27.7318 227.528 26.9174 227.534 25.8861V24.9457ZM236.715 20.2523V24.4359H242.735V20.2523H243.623V29.806H242.735V25.2181H236.715V29.806H235.818V20.2523H236.715Z" fill="black"/>
<path d="M6.30204 16.9564C7.96025 16.9564 9.17021 17.3138 9.93193 18.0287C10.6936 18.7377 11.0745 19.7162 11.0745 20.9642C11.0745 21.5267 10.9895 22.0658 10.8196 22.5814C10.6497 23.0912 10.3714 23.5453 9.98466 23.9437C9.6038 24.3422 9.09404 24.6586 8.45536 24.8929C7.81669 25.1215 7.02861 25.2357 6.09111 25.2357H4.92216V29.806H2.19755V16.9564H6.30204ZM6.16142 19.1888H4.92216V23.0033H5.81865C6.32841 23.0033 6.77079 22.9359 7.14579 22.8011C7.52079 22.6664 7.81083 22.4554 8.01591 22.1683C8.22099 21.8812 8.32353 21.5121 8.32353 21.0609C8.32353 20.4281 8.14775 19.9594 7.79618 19.6547C7.44462 19.3441 6.8997 19.1888 6.16142 19.1888ZM20.29 19.9799V29.806H17.6093V19.9799H20.29ZM18.9541 16.1302C19.3525 16.1302 19.6953 16.224 19.9824 16.4115C20.2695 16.5931 20.4131 16.9359 20.4131 17.4398C20.4131 17.9379 20.2695 18.2836 19.9824 18.4769C19.6953 18.6644 19.3525 18.7582 18.9541 18.7582C18.5498 18.7582 18.2041 18.6644 17.917 18.4769C17.6357 18.2836 17.4951 17.9379 17.4951 17.4398C17.4951 16.9359 17.6357 16.5931 17.917 16.4115C18.2041 16.224 18.5498 16.1302 18.9541 16.1302ZM36.4489 19.9799V29.806H34.3922L34.0319 28.5492H33.8913C33.6803 28.8832 33.4167 29.1556 33.1002 29.3666C32.7838 29.5775 32.4352 29.7328 32.0543 29.8324C31.6735 29.932 31.278 29.9818 30.8678 29.9818C30.1647 29.9818 29.5524 29.8588 29.0309 29.6127C28.5094 29.3607 28.1022 28.9711 27.8092 28.4437C27.5221 27.9164 27.3786 27.2308 27.3786 26.3871V19.9799H30.0592V25.7191C30.0592 26.4222 30.1852 26.9525 30.4372 27.3099C30.6891 27.6674 31.0905 27.8461 31.6413 27.8461C32.1862 27.8461 32.6139 27.723 32.9245 27.4769C33.235 27.225 33.4518 26.8588 33.5749 26.3783C33.7038 25.892 33.7682 25.3002 33.7682 24.6029V19.9799H36.4489ZM50.4368 26.8881C50.4368 27.556 50.2786 28.1215 49.9622 28.5844C49.6517 29.0414 49.1859 29.39 48.5648 29.6302C47.9437 29.8646 47.1702 29.9818 46.2445 29.9818C45.5589 29.9818 44.9701 29.9379 44.4779 29.85C43.9915 29.7621 43.4993 29.6156 43.0013 29.4105V27.1957C43.5345 27.4359 44.1058 27.6351 44.7152 27.7933C45.3304 27.9457 45.8695 28.0219 46.3324 28.0219C46.8538 28.0219 47.2259 27.9457 47.4486 27.7933C47.6771 27.6351 47.7913 27.4301 47.7913 27.1781C47.7913 27.014 47.7445 26.8676 47.6507 26.7386C47.5628 26.6039 47.3695 26.4545 47.0706 26.2904C46.7718 26.1205 46.3031 25.9008 45.6644 25.6312C45.0492 25.3734 44.5423 25.1127 44.1439 24.849C43.7513 24.5853 43.4583 24.2748 43.265 23.9174C43.0775 23.5541 42.9837 23.0941 42.9837 22.5375C42.9837 21.6293 43.3353 20.9467 44.0384 20.4896C44.7474 20.0267 45.6937 19.7953 46.8773 19.7953C47.4867 19.7953 48.0667 19.8568 48.6175 19.9799C49.1742 20.1029 49.7454 20.2992 50.3314 20.5687L49.5228 22.5023C49.0365 22.2914 48.5765 22.1185 48.1429 21.9838C47.7152 21.849 47.2786 21.7816 46.8333 21.7816C46.4408 21.7816 46.1449 21.8344 45.9456 21.9398C45.7464 22.0453 45.6468 22.2064 45.6468 22.4232C45.6468 22.5814 45.6966 22.722 45.7962 22.8451C45.9017 22.9681 46.1009 23.1058 46.3939 23.2582C46.6927 23.4047 47.1292 23.5951 47.7034 23.8295C48.2601 24.058 48.7435 24.2982 49.1536 24.5502C49.5638 24.7963 49.8802 25.1039 50.1029 25.473C50.3255 25.8363 50.4368 26.308 50.4368 26.8881Z" fill="black"/>
<line x1="57.1582" y1="0.80603" x2="57.1582" y2="44.9082" stroke="black"/>
</svg>
